<svg width="48" height="48" viewBox="0 0 48 48" fill="none" xmlns="http://www.w3.org/2000/svg">
<g id="icon">
<path id="Vector" d="M24 48C37.2548 48 48 37.2548 48 24C48 10.7452 37.2548 0 24 0C10.7452 0 0 10.7452 0 24C0 37.2548 10.7452 48 24 48Z" fill="#191919"/>
<path id="Vector_2" d="M23.9997 12C20.7419 12 20.3341 12.0141 19.0544 12.0703C17.7747 12.1312 16.9075 12.3328 16.1435 12.6281C15.356 12.9328 14.6856 13.3453 14.0153 14.0109C13.345 14.6766 12.9372 15.3469 12.6325 16.1391C12.3372 16.9031 12.1356 17.775 12.0747 19.05C12.0138 20.3297 12.0044 20.7375 12.0044 23.9953C12.0044 27.2531 12.0185 27.6609 12.0747 28.9406C12.1356 30.2156 12.3372 31.0875 12.6325 31.8516C12.9372 32.6391 13.3497 33.3094 14.0153 33.9797C14.681 34.6453 15.3513 35.0578 16.1435 35.3625C16.9075 35.6578 17.7794 35.8594 19.0544 35.9203C20.3341 35.9812 20.7419 35.9906 23.9997 35.9906C27.2575 35.9906 27.6653 35.9766 28.945 35.9203C30.22 35.8594 31.0919 35.6578 31.856 35.3625C32.6435 35.0578 33.3138 34.6453 33.9841 33.9797C34.6497 33.3141 35.0622 32.6437 35.3669 31.8516C35.6622 31.0875 35.8638 30.2156 35.9247 28.9406C35.9856 27.6609 35.995 27.2531 35.995 23.9953C35.995 20.7375 35.981 20.3297 35.9247 19.05C35.8638 17.775 35.6622 16.9031 35.3669 16.1391C35.0622 15.3516 34.6497 14.6812 33.9841 14.0109C33.3185 13.3453 32.6481 12.9328 31.856 12.6281C31.0919 12.3328 30.22 12.1312 28.945 12.0703C27.6653 12.0141 27.2575 12 23.9997 12ZM23.9997 14.1609C27.2013 14.1609 27.5856 14.175 28.8513 14.2313C30.0231 14.2875 30.656 14.4797 31.0778 14.6484C31.6403 14.8641 32.0388 15.1266 32.4606 15.5438C32.8778 15.9656 33.1403 16.3641 33.356 16.9266C33.52 17.3484 33.7169 17.9812 33.7685 19.1531C33.8247 20.4187 33.8388 20.7984 33.8388 24.0047C33.8388 27.2109 33.8247 27.5906 33.7638 28.8562C33.7028 30.0281 33.506 30.6609 33.3419 31.0828C33.1169 31.6453 32.8638 32.0437 32.4419 32.4656C32.0247 32.8828 31.6169 33.1453 31.0638 33.3609C30.6419 33.525 29.9997 33.7219 28.8278 33.7734C27.5528 33.8297 27.1778 33.8437 23.9669 33.8437C20.756 33.8437 20.381 33.8297 19.106 33.7687C17.9341 33.7078 17.2919 33.5109 16.87 33.3469C16.3028 33.1219 15.9091 32.8687 15.4919 32.4469C15.07 32.0297 14.8028 31.6219 14.5919 31.0687C14.4278 30.6469 14.231 30.0047 14.17 28.8328C14.1231 27.5719 14.1091 27.1828 14.1091 23.9906C14.1091 20.7937 14.1231 20.4047 14.17 19.1297C14.231 17.9578 14.4231 17.3156 14.5919 16.8937C14.8028 16.3219 15.07 15.9328 15.4919 15.5109C15.9091 15.0937 16.3028 14.8219 16.87 14.6109C17.2919 14.4469 17.92 14.25 19.0919 14.1891C20.3669 14.1422 20.7419 14.1281 23.9528 14.1281L23.9997 14.1609ZM23.9997 17.8359C20.5966 17.8359 17.8356 20.5969 17.8356 24C17.8356 27.4031 20.5966 30.1641 23.9997 30.1641C27.4028 30.1641 30.1638 27.4031 30.1638 24C30.1638 20.5969 27.4028 17.8359 23.9997 17.8359ZM23.9997 27.9984C21.7919 27.9984 20.0013 26.2078 20.0013 24C20.0013 21.7922 21.7919 20.0016 23.9997 20.0016C26.2075 20.0016 27.9981 21.7922 27.9981 24C27.9981 26.2078 26.2075 27.9984 23.9997 27.9984ZM31.8466 17.5969C31.8466 18.3937 31.1997 19.0359 30.4075 19.0359C29.6106 19.0359 28.9685 18.3891 28.9685 17.5969C28.9685 16.8047 29.6153 16.1578 30.4075 16.1578C31.1997 16.1531 31.8466 16.8 31.8466 17.5969Z" fill="white"/>
</g>
</svg>
