<svg width="235" height="32" viewBox="0 0 235 32" fill="none" xmlns="http://www.w3.org/2000/svg">
<g clip-path="url(#clip0_8911_2602)">
<path d="M14.7654 8.48283L19.106 20.7749H10.4243L14.7654 8.48283ZM12.8243 0.220759L0.860352 31.0752H6.77347L8.71088 25.538H20.8158L22.7998 31.0752H28.6663L16.8433 0.221165L12.8243 0.220759ZM39.8303 15.2142C42.2339 15.2142 43.9396 16.7255 45.1633 18.543L49.1905 16.2487C47.3944 12.9665 43.8104 10.7613 39.8303 10.7613C34.0111 10.7613 29.2034 15.4276 29.2034 21.1779C29.2034 26.929 34.0111 31.5949 39.8303 31.5949C43.8104 31.5949 47.3944 29.3898 49.1905 26.1075L45.1633 23.8173C43.9356 25.6308 42.2339 27.1421 39.8303 27.1421C36.5521 27.1421 34.0581 24.3755 34.0581 21.1779C34.0581 17.9812 36.5521 15.2142 39.8303 15.2142ZM79.5645 19.1903C80.2625 16.5979 82.4077 15.0436 84.9875 15.0436C87.5678 15.0436 89.6227 16.6404 90.3247 19.1903H79.5645ZM84.9839 10.7613C79.1647 10.7613 74.5296 15.4276 74.5296 21.1779C74.5296 26.929 79.3373 31.5949 85.1564 31.5949C88.7012 31.5949 91.8027 29.9516 93.7284 27.3167L90.097 24.6388C88.7404 26.2355 87.2972 27.2312 85.1524 27.2312C82.3567 27.2312 80.1685 25.3752 79.5135 22.8638H95.2575C95.3438 22.4766 95.4301 21.7438 95.4301 21.1779C95.4378 15.4272 90.803 10.7613 84.9839 10.7613ZM61.5854 10.7613C55.8291 10.7613 51.7039 15.4276 51.7039 21.1779V31.0756H56.5071V21.1779C56.5071 17.9812 58.3425 15.2142 61.5891 15.2142C64.832 15.2142 66.6673 17.9808 66.6673 21.1779V31.0756H71.471V21.1779C71.4669 15.4272 67.3377 10.7613 61.5854 10.7613ZM231.597 20.399C230.722 19.8372 229.585 19.4499 228.318 19.2288C226.876 18.9695 225.954 18.7986 225.389 18.4073C224.821 18.0196 224.644 17.5004 224.644 16.896C224.644 15.6869 225.648 14.6908 227.134 14.6908C228.621 14.6908 229.495 15.5127 229.891 17.1982L234.177 16.4233C233.612 12.9199 231.157 10.7613 227.181 10.7613C223.115 10.7613 220.186 13.6138 220.186 16.8105C220.186 19.1012 221.017 20.6125 222.331 21.566C223.292 22.2554 224.519 22.6896 226.091 22.9452C227.009 23.0769 227.97 23.2514 228.581 23.55C229.456 23.9838 229.718 24.6736 229.718 25.41C229.718 26.6657 228.624 27.6577 227.138 27.6577C225.652 27.6577 224.558 26.8358 224.468 24.8478H220.096V25.1074C220.096 29.6919 223.766 31.5909 227.134 31.5909C230.546 31.5909 234.173 29.3007 234.173 25.4096C234.177 23.166 233.259 21.4805 231.597 20.399ZM192.552 2.53853H187.702V7.63828H192.552V2.53853ZM192.556 11.277H187.702V31.0716H192.556V11.277ZM133.062 3.41428H128.208V11.2806H126.11V15.7335H128.208V25.0264C128.208 29.1342 131.228 31.5949 135.38 31.5949C135.906 31.5949 136.474 31.5524 136.866 31.4669V27.1425H136.474C134.329 27.1425 133.062 26.193 133.062 23.9028V15.7335H136.866V11.281H133.062V3.41428ZM120.33 15.04C118.801 14.0476 117.095 13.6992 115.566 13.3967C114.166 13.1334 112.723 12.9628 111.409 12.0984C110.449 11.4511 109.837 10.413 109.837 9.02927C109.837 6.6961 111.891 4.75099 114.342 4.75099C118.628 4.75099 119.021 9.24638 119.021 9.24638L124.095 8.38197C123.832 5.82886 121.863 0 114.342 0C108.919 0 104.633 4.06116 104.633 9.03291C104.633 12.5367 106.382 15.3884 109.397 16.7684C111.366 17.6749 112.809 17.8495 114.166 18.1517C115.652 18.5005 116.656 18.671 117.444 19.3183C118.362 20.0543 118.844 21.2168 118.844 22.3445C118.844 24.7627 116.832 26.6228 114.338 26.6228C113.201 26.6228 109.919 26.1035 109.919 21.7361H104.672C104.672 29.9054 111.844 31.3742 114.338 31.3742C119.718 31.3742 124.134 27.3555 124.134 22.3409C124.134 19.1903 122.777 16.6404 120.33 15.04ZM206.751 27.1421C203.473 27.1421 200.975 24.3755 200.975 21.1779C200.975 17.9812 203.469 15.2142 206.751 15.2142C210.029 15.2142 212.523 17.9808 212.523 21.1779C212.527 24.3751 210.029 27.1421 206.751 27.1421ZM206.751 10.7613C200.932 10.7613 196.125 15.4276 196.125 21.1779C196.125 26.929 200.936 31.5949 206.751 31.5949C212.567 31.5949 217.378 26.929 217.378 21.1779C217.378 15.4272 212.57 10.7613 206.751 10.7613ZM155.653 21.1787C155.653 24.3759 153.602 27.1425 150.481 27.1425H150.383C147.266 27.1425 145.211 24.3759 145.211 21.1787V11.281H140.595V21.1783C140.595 26.9254 144.85 31.5949 150.383 31.5949H150.481C156.014 31.5949 160.269 26.929 160.269 21.1783V11.281H155.653V21.1787ZM173.311 27.1583C170.111 27.1583 167.515 24.4808 167.515 21.1787C167.515 17.8775 170.111 15.1992 173.311 15.1992C176.51 15.1992 179.106 17.8771 179.106 21.1787C179.106 24.4804 176.51 27.1583 173.311 27.1583ZM179.083 12.785C176.75 10.7155 173.311 10.7621 173.311 10.7621C167.495 10.7621 162.649 15.4281 162.649 21.1787C162.649 26.9258 167.495 31.5953 173.311 31.5953C179.31 31.5953 183.937 27.1583 183.937 21.1828V0.202127H179.083V12.785Z" fill="white"/>
</g>
<defs>
<clipPath id="clip0_8911_2602">
<rect width="233.316" height="32" fill="white" transform="translate(0.860352)"/>
</clipPath>
</defs>
</svg>
