<svg width="436" height="97" viewBox="0 0 436 97" fill="none" xmlns="http://www.w3.org/2000/svg">
<g clip-path="url(#clip0_8911_2572)">
<path fill-rule="evenodd" clip-rule="evenodd" d="M34.6319 21.7331L35.6297 19.0184L35.8754 17.8239C35.86 17.5447 35.7526 17.312 35.6144 17.0948C35.4148 16.7846 35.0925 16.5829 34.7394 16.4588L33.9104 16.1331V12.2859H57.8887V16.0245L57.1979 16.3813C56.8142 16.5829 56.4457 16.8932 56.1387 17.2034C56.0006 17.4206 55.9238 17.6533 55.9238 17.917C55.9238 18.3358 56.0159 18.8012 56.1387 19.2201L57.1979 21.5935L86.1653 85.7844C86.8254 87.2891 87.7311 88.98 88.8978 90.1745C89.911 91.2138 91.093 91.9894 92.3825 92.6255L93.1194 92.9823V96.9845H69.9393V92.9978L70.6608 92.641C71.0139 92.4548 71.3976 92.2221 71.6433 91.9274C71.7814 91.7412 71.8428 91.5706 71.8428 91.3379C71.8428 90.9656 71.7507 90.5778 71.6433 90.221L70.6454 87.6304L65.1805 75.36H25.9586L20.7239 87.677L20.509 88.0803C20.1713 88.7939 19.3884 90.5623 19.3884 91.3224C19.3884 91.5551 19.4498 91.7257 19.5572 91.8964C19.7568 92.1756 20.2634 92.4703 20.5704 92.6255L21.2765 92.9823V96.969H0V92.9202L0.782903 92.5789C1.88818 92.1135 3.20837 91.462 4.05267 90.5778C5.01979 89.6315 5.81804 88.0338 6.37068 86.8238L34.6319 21.7331ZM31.531 61.7089H59.1322L45.2241 30.2495L31.531 61.7089ZM126.508 84.2952H175.539C176.076 84.2952 177.197 84.2487 177.642 83.8919C178.686 83.0542 179.254 78.2919 179.131 76.2442H182.969V96.8759L108.056 97V93.1994L109.054 92.9512C109.652 92.7961 110.604 92.4859 111.003 91.9739C111.433 91.4155 111.495 90.2831 111.495 89.616V20.1663C111.495 19.6079 111.448 18.1807 111.065 17.7153L111.034 17.6843V17.6533C110.696 17.2034 109.438 16.738 108.946 16.5674L108.056 16.2727V12.3015H130.1V16.3347L129.133 16.5984C128.503 16.7691 127.444 17.1259 127.03 17.6998C126.585 18.3203 126.508 19.4372 126.508 20.1663V84.2952ZM308.295 91.493C308.617 90.9346 308.663 89.6936 308.663 89.1196V20.1663C308.663 19.6079 308.602 18.1807 308.233 17.7153L308.203 17.6843V17.6533C307.865 17.2034 306.606 16.738 306.115 16.5674L305.225 16.2727V12.3015H327.269V16.3347L326.317 16.5984C325.688 16.7691 324.705 17.1103 324.291 17.6688C323.891 18.2117 323.83 19.5303 323.83 20.1818V89.1351C323.83 89.8642 323.891 90.9036 324.245 91.5706C324.644 91.9894 325.795 92.3307 326.286 92.4548L327.269 92.7185V97H305.225V92.6875L306.222 92.4393C306.867 92.2842 307.788 91.9894 308.295 91.493ZM228.884 21.7331L229.882 19.0184L230.127 17.8239C230.112 17.5447 230.005 17.312 229.866 17.0948C229.667 16.7846 229.344 16.5829 228.991 16.4588L228.162 16.1331V12.2859H252.141V16.0245L251.45 16.3813C251.066 16.5829 250.698 16.8932 250.391 17.2034C250.253 17.4206 250.176 17.6533 250.176 17.917C250.176 18.3358 250.283 18.8012 250.391 19.2201L251.45 21.5935L280.417 85.7844C281.093 87.2891 281.983 88.98 283.15 90.1745C284.163 91.2138 285.345 91.9894 286.65 92.6255L287.387 92.9823V96.9845H264.207V92.9978L264.913 92.641C265.266 92.4548 265.65 92.2221 265.895 91.9274C266.033 91.7412 266.095 91.5706 266.095 91.3379C266.095 90.9656 266.003 90.5778 265.895 90.221L264.897 87.6304L259.432 75.36H220.211L214.976 87.677L214.761 88.0803C214.423 88.7939 213.64 90.5623 213.64 91.3224C213.64 91.5551 213.702 91.7257 213.809 91.8964C214.009 92.1756 214.515 92.4703 214.822 92.6255L215.528 92.9823V96.969H194.237V92.9202L195.02 92.5789C196.125 92.1135 197.445 91.462 198.289 90.5778C199.256 89.6315 200.055 88.0338 200.607 86.8238L228.853 21.6866L228.884 21.7331ZM225.783 61.7089H253.384L239.476 30.2495L225.783 61.7089ZM377.482 21.7331L378.48 19.0184L378.725 17.8239C378.695 17.5447 378.602 17.312 378.464 17.0948C378.265 16.7846 377.942 16.5829 377.589 16.4588L376.76 16.1331V12.2859H400.739V16.0245L400.048 16.3813C399.664 16.5829 399.296 16.8932 398.989 17.2034C398.851 17.4206 398.774 17.6533 398.774 17.917C398.774 18.3358 398.866 18.8012 398.989 19.2201L400.048 21.5935L429.015 85.7844C429.675 87.2891 430.581 88.98 431.748 90.1745C432.761 91.2138 433.943 91.9894 435.248 92.6255L435.985 92.9823V96.9845H412.805V92.9978L413.526 92.641C413.879 92.4548 414.263 92.2221 414.509 91.9274C414.647 91.7412 414.708 91.5706 414.708 91.3379C414.708 90.9656 414.616 90.5778 414.509 90.221L413.511 87.6304L408.046 75.36H368.824L363.589 87.677L363.39 88.0803C363.052 88.7939 362.269 90.5623 362.269 91.3224C362.269 91.5551 362.33 91.7257 362.438 91.8964C362.637 92.1756 363.144 92.4703 363.451 92.6255L364.157 92.9823V96.969H342.865V92.9202L343.664 92.5789C344.769 92.1135 346.089 91.462 346.933 90.5778C347.9 89.6315 348.699 88.0338 349.251 86.8238L377.497 21.6866L377.482 21.7331ZM374.381 61.7089H401.982L388.074 30.2495L374.381 61.7089ZM310.613 0C312.961 0 314.865 1.92356 314.865 4.29698C314.865 6.6704 312.961 8.59396 310.613 8.59396C308.264 8.59396 306.361 6.6704 306.361 4.29698C306.361 1.92356 308.264 0 310.613 0ZM321.42 0C323.769 0 325.672 1.92356 325.672 4.29698C325.672 6.6704 323.769 8.59396 321.42 8.59396C319.071 8.59396 317.168 6.6704 317.168 4.29698C317.168 1.92356 319.071 0 321.42 0Z" fill="white"/>
</g>
<defs>
<clipPath id="clip0_8911_2572">
<rect width="436" height="97" fill="white"/>
</clipPath>
</defs>
</svg>
