<svg width="437" height="88" viewBox="0 0 437 88" fill="none" xmlns="http://www.w3.org/2000/svg">
<g clip-path="url(#clip0_8911_2525)">
<path d="M58.0539 16.1659L58.0463 16.1582L57.3691 17.5066L58.0539 16.1659Z" fill="white"/>
<path d="M102.893 70.8867L68.0901 0.669922H64.5065L35.6309 57.4179C28.3797 71.8419 18.222 85.3259 4.64022 85.3259H0.0292969V86.6667H56.0681V85.3259H48.2921C38.5299 85.3259 32.4657 80.6567 32.4657 72.9051C32.4657 67.8355 35.1059 62.3571 36.2701 60.0915H75.0445C75.1737 60.3459 75.3185 60.6387 75.4705 60.9547L77.6393 65.6239C79.6249 70.1239 81.7861 75.5403 81.7861 77.5823C81.7861 83.4535 75.9805 85.2875 68.5997 85.2875H66.3553V86.6279H125.301V85.2875H122.257C113.446 85.3259 106.987 79.3623 102.893 70.8867ZM58.0541 16.1803L57.3693 17.521L58.0465 16.1803H58.0541ZM36.6885 58.7511L56.3725 19.4935L58.1909 23.4848L69.6957 48.4339L74.4509 58.7511H36.6885Z" fill="white"/>
<path d="M148.59 73.3913C147.706 73.3785 146.828 73.5461 146.008 73.8829C145.188 74.2201 144.443 74.7205 143.818 75.3537C143.192 75.9873 142.698 76.7417 142.365 77.5717C142.032 78.4017 141.867 79.2913 141.88 80.1869C141.88 84.1165 144.604 87.7225 148.796 87.7225C152.988 87.7225 155.408 84.1165 155.408 80.1869C155.39 78.3717 154.662 76.6373 153.385 75.3637C152.107 74.0901 150.383 73.3809 148.59 73.3913Z" fill="white"/>
<path d="M233.841 85.3257H212.027V14.9549C212.027 4.67631 217.3 2.31086 224.026 2.31086H234.237V0.931641H173.846V2.31086H179.514C188.881 2.31086 192.175 6.93391 192.175 15.2246V72.5045C192.175 79.9861 189.01 85.3257 178.198 85.3257H173.846V86.6665H275.249L276.564 43.7953H275.249C275.378 74.5077 248.48 85.3257 233.841 85.3257Z" fill="white"/>
<path d="M298.987 73.3913C298.102 73.3785 297.224 73.5461 296.404 73.8829C295.584 74.2201 294.84 74.7205 294.214 75.3537C293.588 75.9873 293.095 76.7417 292.762 77.5717C292.429 78.4017 292.264 79.2913 292.276 80.1869C292.276 84.1165 295 87.7225 299.192 87.7225C303.385 87.7225 305.804 84.1165 305.804 80.1869C305.786 78.3717 305.059 76.6373 303.781 75.3637C302.504 74.0901 300.78 73.3809 298.987 73.3913Z" fill="white"/>
<path d="M404.057 56.802C399.979 70.8868 386.557 85.4032 368.075 85.758C355.216 85.758 341.444 79.2392 341.444 43.9344C341.444 6.37984 355.954 2.08808 368.63 1.8107C376.14 2.08808 384.966 6.91148 391.274 14.3161C397.478 21.809 402.297 30.3726 405.501 39.5965L406.081 39.6428V2.31153H403.449L391.685 10.949C381.793 2.67367 375.333 0 365.183 0C340.394 0 319.424 20.8038 319.424 43.9192C319.424 66.6184 339.968 87.9844 363.73 87.9844C385.248 87.9844 400.769 74.6164 405.761 56.7868C406.113 55.6032 406.401 54.4024 406.629 53.1884C406.257 53.1884 405.509 53.25 404.969 53.25C404.901 53.774 404.057 56.802 404.057 56.802Z" fill="white"/>
<path d="M429.213 73.3913C428.325 73.3789 427.449 73.5461 426.629 73.8829C425.809 74.2201 425.061 74.7201 424.437 75.3533C423.809 75.9869 423.313 76.7409 422.981 77.5713C422.649 78.4013 422.481 79.2909 422.493 80.1869C422.493 84.1165 425.225 87.7225 429.417 87.7225C433.609 87.7225 436.029 84.1165 436.029 80.1869C436.009 78.3717 435.281 76.6373 434.005 75.3637C432.729 74.0901 431.005 73.3809 429.213 73.3913Z" fill="white"/>
</g>
<defs>
<clipPath id="clip0_8911_2525">
<rect width="436" height="88" fill="white" transform="translate(0.0292969)"/>
</clipPath>
</defs>
</svg>
