<svg width="436" height="92" viewBox="0 0 436 92" fill="none" xmlns="http://www.w3.org/2000/svg">
<g clip-path="url(#clip0_8911_2537)">
<mask id="mask0_8911_2537" style="mask-type:luminance" maskUnits="userSpaceOnUse" x="0" y="0" width="436" height="92">
<path d="M436 0H0V92H436V0Z" fill="white"/>
</mask>
<g mask="url(#mask0_8911_2537)">
<path d="M427.027 11.7188V79.4371C427.027 85.4294 431.059 88.8144 436 90.5052V91.1581H406.999V90.5052C411.943 88.811 415.712 85.4259 415.712 79.4371V18.6208L382.417 91.1581H381.637L350.691 18.6208V79.4371C350.691 85.4294 354.59 88.8144 359.534 90.5052V91.1581H337.166V90.5052C341.977 88.811 345.877 85.4259 345.877 79.4371V11.7188C345.877 5.72994 341.977 2.47329 337.166 0.650603V-0.002192H354.982L385.802 72.7954L419.356 -0.002192H436V0.650603C431.059 2.47329 427.027 5.72994 427.027 11.7188ZM257.857 91.1581V90.5052C262.798 88.811 266.701 85.4259 266.701 79.4371V11.7188C266.701 5.72994 262.801 2.47329 257.857 0.650603V-0.002192H320.408V18.4924H319.754C318.195 13.2847 312.083 4.03559 299.599 4.03559H278.142V40.7607H293.358C299.731 40.7607 303.503 35.2926 306.231 30.2134H306.883V55.0855H306.231C303.499 49.8779 299.727 44.7986 293.358 44.7986H278.142V87.124H301.291C314.035 87.124 321.968 77.7463 323.786 70.0632H324.44V91.1616H257.857V91.1581ZM196.78 87.1202H186.895V4.03559H197.559C222.136 4.03559 235.661 19.7943 235.661 44.5381C235.661 72.4065 217.844 87.124 196.776 87.124M166.735 90.509V91.1616H195.864C224.213 91.1616 247.361 74.3613 247.361 43.2362C247.361 16.6697 226.553 0.00147538 197.036 0.00147538H166.735V0.65427C171.675 2.47696 175.579 5.7336 175.579 11.7224V79.4406C175.579 85.4332 171.679 88.8182 166.735 90.509ZM111.81 43.3645H100.497V3.25444H111.55C125.854 3.25444 131.578 12.2396 131.578 23.051C131.578 33.8623 125.206 43.3645 111.813 43.3645M100.501 79.4371V46.4894H115.065C117.538 48.5722 120.526 53.0024 123.129 58.2101L133.274 78.3954C136.526 84.7769 140.554 93.373 153.299 91.8071L157.459 91.2864V90.6336C152.127 90.1129 148.226 83.0788 143.934 75.3954L133.662 56.7725C130.022 50.2592 125.99 47.0063 123.39 45.5725C134.702 42.1875 143.286 33.9834 143.286 22.5229C143.286 8.19806 131.062 -0.00585938 113.377 -0.00585938H80.3481V0.646936C85.2884 2.46963 89.1922 5.72627 89.1922 11.7151V79.4333C89.1922 85.4259 85.2921 88.811 80.3481 90.5014V91.1543H109.349V90.5014C104.537 88.8072 100.505 85.4221 100.505 79.4333M0 91.1581V90.5052C4.94028 88.811 8.84414 85.4259 8.84414 79.4371V11.7188C8.84414 5.72994 4.94028 2.47329 0 0.650603V-0.002192H62.5501V18.4924H61.8981C60.3379 13.2847 54.2256 4.03559 41.7414 4.03559H20.2848V40.7607H35.501C41.8734 40.7607 45.6452 35.2926 48.3736 30.2134H49.0255V55.0855H48.3736C45.6417 49.8779 41.8696 44.7986 35.501 44.7986H20.2848V87.124H43.4333C56.1777 87.124 64.11 77.7463 65.9301 70.0632H66.582V91.1616H0V91.1581Z" fill="white"/>
</g>
</g>
<defs>
<clipPath id="clip0_8911_2537">
<rect width="436" height="92" fill="white"/>
</clipPath>
</defs>
</svg>
