<svg width="436" height="64" viewBox="0 0 436 64" fill="none" xmlns="http://www.w3.org/2000/svg">
<g clip-path="url(#clip0_8911_2592)">
<path d="M324.382 33.6282C329.867 33.6282 334.37 32.139 337.761 29.2057C341.193 26.2354 342.935 22.2764 342.935 17.4313C342.935 12.5862 341.197 8.62721 337.761 5.65695C334.366 2.7236 329.867 1.23438 324.382 1.23438H296.836V62.9247H300.636V33.6282H314.795L340.886 62.9247H346.215L319.855 33.6282H324.374H324.382ZM300.636 4.86926H324.382C328.882 4.86926 332.514 6.04259 335.18 8.35234C337.843 10.658 339.135 13.6323 339.135 17.4354C339.135 21.2385 337.843 24.2087 335.18 26.5185C332.514 28.8282 328.882 30.0016 324.382 30.0016H300.636V4.87336V4.86926Z" fill="white"/>
<path d="M359.937 1.23438H356.138V62.9247H359.937V1.23438Z" fill="white"/>
<path d="M426.945 9.54989C420.945 3.44119 413.517 0.34375 404.876 0.34375C396.233 0.34375 388.716 3.44119 382.716 9.54989C376.72 15.6545 373.681 23.236 373.681 32.0812C373.681 40.9263 376.72 48.5079 382.716 54.6125C388.716 60.7212 396.172 63.8187 404.876 63.8187C413.579 63.8187 421.023 60.7213 426.994 54.6084C432.957 48.5038 435.984 40.9222 435.984 32.0771C435.984 23.232 432.945 15.6504 426.949 9.54582L426.945 9.54989ZM385.407 12.1386C390.663 6.72322 397.215 3.97862 404.871 3.97862C412.528 3.97862 418.99 6.72322 424.246 12.1386C429.51 17.5622 432.176 24.274 432.176 32.0853C432.176 39.8966 429.51 46.6782 424.246 52.073C418.99 57.4597 412.47 60.192 404.867 60.192C397.264 60.192 390.654 57.4597 385.399 52.073C380.135 46.6823 377.468 39.954 377.468 32.0853C377.468 24.2166 380.135 17.5622 385.399 12.1386H385.407Z" fill="white"/>
<path fill-rule="evenodd" clip-rule="evenodd" d="M162.637 42.0433C163.787 41.711 164.842 41.2269 165.827 40.6484C166.883 40.1561 167.946 39.4996 168.846 38.7612C173.754 34.9089 176.854 29.0053 176.854 22.3673C176.854 20.8125 176.695 19.3355 176.363 17.9407C176.032 16.5458 175.627 15.155 174.969 13.8381C171.95 7.11811 165.492 2.36325 157.807 1.78889H149.312L125.442 1.71094C124.219 1.71094 123.074 2.20325 122.256 3.01966C121.442 3.84017 120.947 4.98888 120.947 6.2976V62.7817H130.019V43.1099H152.821L164.51 62.7038L164.588 62.7817H174.887L174.801 62.6217L162.625 42.0433H162.637ZM149.32 34.8268H130.027V9.90375H156.265C159.701 9.90375 162.801 11.3027 165.005 13.5961C167.214 15.8073 168.682 18.9253 168.682 22.3673V22.4494C168.682 23.3479 168.519 24.1684 168.355 25.0709C168.2 25.8873 167.868 26.712 167.541 27.5325C165.742 31.4668 161.983 34.3345 157.488 34.8268H149.32Z" fill="white"/>
<path fill-rule="evenodd" clip-rule="evenodd" d="M106.079 62.6175C104.361 58.4329 102.562 54.1786 100.844 49.9939C94.4674 34.9087 88.1769 19.8236 82.5408 4.66459L82.4549 4.58664C82.3772 4.33228 82.2136 4.08613 82.1318 3.83998C81.9641 3.68408 81.8046 3.43382 81.6369 3.26972C80.823 2.2851 79.596 1.71484 78.2013 1.71484C77.9599 1.71484 77.7963 1.71484 77.5509 1.79279C77.3096 1.79279 77.0601 1.87895 76.8147 1.9569C76.5652 2.03895 76.3239 2.1251 76.1644 2.20305C75.1828 2.69536 74.3689 3.59382 73.9517 4.66459C68.2379 19.8277 61.9433 34.9087 55.6446 49.9939C53.845 54.1786 52.0535 58.4329 50.3316 62.6175L50.2539 62.7816H59.4034V62.7037L63.1703 53.6042H93.3222L96.9992 62.7037L97.0769 62.7816H106.153L106.071 62.6175H106.079ZM78.2053 46.2196H66.1929L78.2053 16.6277L90.3037 46.2196H78.2053Z" fill="white"/>
<path fill-rule="evenodd" clip-rule="evenodd" d="M9.31386 31.6307H35.1426C35.3839 31.7128 35.7152 31.7128 35.9565 31.8769C36.2878 31.9548 36.525 32.041 36.7745 32.201C37.9975 32.9436 38.8154 34.2564 38.8154 35.8113V36.1395C38.7336 36.4718 38.7336 36.7959 38.57 37.0461C38.4923 37.3743 38.4065 37.6205 38.2429 37.8666C37.5108 39.0974 36.1978 39.9097 34.7295 39.9097H9.31386V62.7857H0.15625V6.30151C0.15625 4.98869 0.72476 3.83998 1.54277 3.02767C2.36487 2.20716 3.506 1.71484 4.73709 1.71484H48.873V9.90767H9.31386V31.6349V31.6307Z" fill="white"/>
<path fill-rule="evenodd" clip-rule="evenodd" d="M200.56 0.640625C201.21 0.640625 201.865 0.804728 202.441 1.05088C202.605 1.13293 202.769 1.21088 202.932 1.30114C203.832 1.78934 204.482 2.5278 204.887 3.51242L228.184 42.4541L251.395 3.51242C251.477 3.26627 251.637 3.02012 251.804 2.85601C251.89 2.61396 252.046 2.44575 252.209 2.1996C253.109 1.30114 254.336 0.640625 255.731 0.640625H255.812C256.217 0.640625 256.549 0.718574 256.876 0.804728C257.199 0.886779 257.526 0.968826 257.853 1.13293C259.326 1.87139 260.385 3.43036 260.549 5.14522V62.7824H251.395V17.855C248.778 22.2858 246.246 26.7945 243.714 31.3032C239.865 38.1094 236.033 44.9157 232.025 51.5536L231.939 51.6357C231.861 51.8777 231.693 52.0459 231.612 52.21C231.448 52.3741 231.284 52.4521 231.121 52.6203C230.299 53.2808 229.321 53.687 228.176 53.687H228.012C227.771 53.687 227.522 53.687 227.358 53.6049C227.113 53.6049 226.871 53.5229 226.704 53.4408C225.726 53.1126 224.904 52.4521 224.335 51.5577C220.086 44.6654 216 37.453 211.996 30.3227C209.632 26.1422 207.337 21.9575 204.965 17.8591V62.7865H195.815V5.14936C195.815 4.82526 195.897 4.49701 195.975 4.17291C196.057 3.84063 196.22 3.51652 196.384 3.27037C197.12 1.7155 198.756 0.64883 200.556 0.64883" fill="white"/>
</g>
<defs>
<clipPath id="clip0_8911_2592">
<rect width="436" height="64" fill="white"/>
</clipPath>
</defs>
</svg>
