<svg width="157" height="40" viewBox="0 0 157 40" fill="none" xmlns="http://www.w3.org/2000/svg">
<path d="M35.1218 18.9954H19.1009V24.0835H29.0422C29.0161 25.5708 28.7813 27.0581 28.2855 28.4671C27.868 29.7195 27.1635 30.8676 26.2242 31.8069C25.2848 32.7463 24.1368 33.4507 22.8843 33.9204C21.4231 34.4162 19.8837 34.651 18.3442 34.5988C16.309 34.5988 14.5608 34.1813 13.0735 33.3725C11.6123 32.5897 10.386 31.4416 9.47271 30.0848C8.50729 28.6497 7.82888 27.0581 7.4114 25.3881C6.52425 21.8656 6.52425 18.2127 7.4114 14.6902C7.82888 13.0202 8.50729 11.4286 9.47271 9.99348C10.386 8.61057 11.6384 7.48858 13.0996 6.7058C14.5869 5.89693 16.3351 5.47945 18.3703 5.47945C19.5445 5.47945 20.7186 5.63601 21.8406 5.97521C22.9104 6.28833 23.928 6.75799 24.8413 7.41031C26.7199 8.74103 27.9463 10.8023 28.2072 13.0724H34.7304C34.5216 11.0633 33.9215 9.13242 32.9039 7.41031C31.9646 5.81866 30.7382 4.40965 29.2509 3.31376C27.7376 2.19178 26.0415 1.35682 24.2411 0.834963C22.3103 0.287018 20.3272 0 18.3181 0C15.474 0 12.8908 0.547944 10.6469 1.61774C8.42901 2.63535 6.47206 4.12264 4.88041 5.94912C3.28876 7.82779 2.06241 9.99348 1.27963 12.3157C0.418571 14.7945 -0.0250038 17.4038 0.00108888 20.013C-0.0250038 22.6484 0.418571 25.2838 1.25353 27.7626C2.03631 30.0848 3.26267 32.2505 4.85432 34.1292C6.44597 35.9556 8.40291 37.4429 10.6208 38.4344C12.8908 39.4781 15.4479 40 18.292 40C20.6143 40 22.6756 39.6086 24.4499 38.8258C26.2242 38.0431 28.0246 36.634 29.7989 34.5988L30.4773 39.0868H35.0957L35.1218 18.9954ZM74.2346 39.1389L59.5184 0.913242H52.3951L37.731 39.1389H44.6195L48.1942 29.015H63.4584L67.0331 39.1389H74.2346ZM61.7102 23.9269H50.0467L55.8393 7.48858H55.9959L61.7102 23.9269ZM76.9482 39.1129H83.3148V11.0111H83.4714L100.875 39.1129H107.946V0.913242H101.58V29.0672H101.475L84.0193 0.913242H76.9482V39.1129ZM113.4 39.1129H119.766V11.0111H119.923L137.327 39.1129H144.398V0.913242H138.031V29.0672H137.927L120.471 0.913242H113.4V39.1129ZM149.877 39.1129H156.557V0.913242H149.877V39.1129Z" fill="white"/>
</svg>
