<svg width="436" height="114" viewBox="0 0 436 114" fill="none" xmlns="http://www.w3.org/2000/svg">
<g clip-path="url(#clip0_8911_2543)">
<path d="M248.435 57.2129H246.725L225.609 110.396H225.438L203.98 57.2129H202.355L224.668 112.454H226.464L248.435 57.2129Z" fill="white"/>
<path d="M258.607 58.586H258.778L271.858 92.6402H245.014L258.607 58.586ZM259.462 56.5273H257.752L235.269 112.455H237.064L244.416 94.27H272.542L279.809 112.455H281.433L259.462 56.5273Z" fill="white"/>
<path d="M285.708 57.1289H284.169V112.37H317.938V110.826H285.708V57.1289Z" fill="white"/>
<path d="M354.87 112.37V110.826H322.64V57.1289H321.102V112.37H354.87Z" fill="white"/>
<path d="M359.999 57.1289H358.546V64.9348H359.999V57.1289Z" fill="white"/>
<path d="M359.999 72.5684H358.546V112.37H359.999V72.5684Z" fill="white"/>
<path d="M47.1906 18.7849H48.8149C47.8745 13.2092 45.3953 8.83453 41.2918 5.57493C37.1882 2.31534 32.0588 0.685544 25.9035 0.685544C17.9529 0.599765 11.6267 3.34469 6.83922 8.83453C2.30824 14.067 0 20.7578 0 28.9068C0 37.1415 2.22275 43.7465 6.58275 48.979C11.2847 54.4688 17.6965 57.2995 25.9035 57.2995C31.3749 57.2995 35.9914 56.0129 39.9239 53.4395C43.8565 50.7804 46.5067 47.1777 47.96 42.6314H48.131V57.3853H49.5843V30.6223H26.6729V32.1664H48.0455V34.9971C48.0455 40.9158 45.9082 45.891 41.6337 49.8368C37.4447 53.7826 32.2298 55.7555 26.0745 55.7555C18.2094 55.7555 12.1396 53.0964 7.60863 47.8639C3.5051 42.9745 1.45333 36.7126 1.45333 28.9068C1.45333 21.2725 3.59059 15.0106 7.8651 9.94965C12.3961 4.71715 18.3804 2.14378 25.818 2.14378C31.5459 2.14378 36.2478 3.60202 40.0949 6.69006C43.8565 9.69232 46.1647 13.7239 47.1906 18.7849Z" fill="white"/>
<path d="M80.7886 3.34464H81.045L94.2105 37.4846H67.1101L80.7886 3.34464ZM102.076 57.3853H103.785L81.8145 1.71484H79.8482L57.3643 57.3853H59.1596L66.5972 39.0286H94.7235L102.076 57.3853Z" fill="white"/>
<path d="M154.908 3.68776H155.079V57.3853H156.618V1.71484H154.053L130.714 55.3266H130.458L107.119 1.71484H104.469V57.3853H106.008V3.68776H106.264L129.688 57.3853H131.398L154.908 3.68776Z" fill="white"/>
<path d="M185.684 29.1641C190.13 29.1641 193.72 30.1076 196.542 32.0805C199.876 34.3966 201.5 37.8277 201.5 42.374C201.5 46.7487 199.961 50.0941 196.883 52.4959C194.062 54.6404 190.301 55.7555 185.513 55.7555H163.542V29.1641H185.684ZM195.516 24.532C192.951 26.5907 189.702 27.5343 185.684 27.5343H163.457V3.34464H185.684C189.873 3.34464 193.207 4.37399 195.772 6.3469C198.508 8.49137 199.79 11.4936 199.79 15.611C199.79 19.3853 198.337 22.3875 195.516 24.532ZM196.798 5.23177C193.977 3.00153 190.215 1.71484 185.684 1.71484H161.918V57.3853H184.744C190.215 57.3853 194.661 56.0986 197.909 53.5252C201.329 50.8661 203.039 47.0918 203.039 42.2882C203.039 38.1708 201.756 34.8255 199.106 32.3379C196.542 29.9361 193.464 28.7352 189.617 28.5636V28.3063C193.036 28.0489 195.772 26.6765 197.995 24.2747C200.218 21.8729 201.329 18.9564 201.329 15.611C201.329 11.1505 199.79 7.63358 196.798 5.23177Z" fill="white"/>
<path d="M315.716 17.3262H314.177V57.2991H315.716V17.3262Z" fill="white"/>
<path d="M358.546 17.2413H360.085C359.657 6.34742 353.075 0.943359 340.593 0.943359C335.378 0.943359 331.104 1.97271 327.855 3.77406C323.751 6.17587 321.785 9.86435 321.785 14.7537C321.785 19.3 323.751 22.7312 327.684 24.9614C329.736 26.1623 333.925 27.3632 340.251 28.8215C341.619 29.1646 343.842 29.6793 346.834 30.2797C349.484 30.9659 351.536 31.6522 353.075 32.4242C357.435 34.4829 359.572 37.914 359.572 42.5461C359.572 46.835 357.691 50.0946 353.844 52.4964C350.51 54.5551 346.492 55.4987 341.619 55.4987C328.282 55.4987 321.614 49.6657 321.614 37.914H319.99C319.904 44.3474 321.956 49.2368 326.06 52.4964C329.821 55.4987 334.951 56.9569 341.533 56.9569C346.834 56.9569 351.279 55.8418 354.87 53.5258C359.059 50.9524 361.111 47.2639 361.111 42.5461C361.111 37.6567 359.23 34.054 355.468 31.8237C354.015 30.9659 351.963 30.1939 349.484 29.4219C349.057 29.3361 346.663 28.7357 342.217 27.6206C339.054 26.9343 336.746 26.3339 335.207 25.9908C332.642 25.3045 330.676 24.6183 329.137 23.9321C325.205 21.9592 323.239 18.8711 323.239 14.668C323.239 10.2932 325.205 7.03365 328.966 4.88918C332.044 3.17361 335.891 2.31582 340.593 2.31582C352.22 2.48738 358.204 7.37677 358.546 17.2413Z" fill="white"/>
<path d="M402.06 3.34464V1.71484H360.598V3.34464H380.602V57.3853H382.056V3.34464H402.06Z" fill="white"/>
<path d="M414.884 3.34464H415.055L428.22 37.4846H401.291L414.884 3.34464ZM413.943 1.71484L391.545 57.3853H393.34L400.692 39.0286H428.904L436.256 57.3853H437.881L415.995 1.71484H413.943Z" fill="white"/>
<path d="M54.7136 1.80078H53.1748V9.69243H54.7136V1.80078Z" fill="white"/>
<path d="M54.7136 17.3262H53.1748V57.2991H54.7136V17.3262Z" fill="white"/>
<path d="M225.608 3.34464H225.779L238.945 37.4846H212.016L225.608 3.34464ZM226.634 1.71484H224.583L202.099 57.2137H203.894L211.246 39.0286H239.543L246.725 57.2137H248.434L226.634 1.71484Z" fill="white"/>
<path d="M315.715 9.60649V1.71484H238.09V3.34464H258.009V57.2995H259.548V3.34464H294.257V57.3853H295.796V3.34464H314.176V9.60649H315.715Z" fill="white"/>
<path d="M109.598 86.6363H112.676C114.728 86.6363 115.839 87.5799 115.839 89.2097C115.839 91.011 114.728 91.783 112.334 91.783H109.684V86.6363H109.598ZM117.378 89.2954C117.378 86.6363 115.839 85.3496 113.018 85.3496H108.06V99.5031H109.598V93.0697H112.078C115.497 93.0697 117.378 91.8688 117.378 89.2954Z" fill="white"/>
<path d="M123.02 86.379L125.158 93.7559H120.798L122.849 86.379H123.02ZM120.37 95.0426H125.499L126.782 99.5889H128.492L124.132 85.3496H121.738L117.378 99.5889H119.002L120.37 95.0426Z" fill="white"/>
<path d="M132.425 91.6971V86.5504H135.246C137.468 86.5504 138.494 87.4081 138.494 89.0379C138.494 90.7535 137.383 91.6113 135.246 91.6113H132.425V91.6971ZM130.886 99.5029H132.51V92.9838H135.759L138.665 99.5029H140.375L137.383 92.7264C139.264 92.126 140.119 90.8393 140.119 89.0379C140.119 86.5504 138.58 85.2637 135.502 85.2637H130.886V99.5029Z" fill="white"/>
<path d="M146.017 85.2637H144.479V99.5029H146.017V85.2637Z" fill="white"/>
<path d="M157.216 88.8659L158.584 88.5228C157.9 86.121 156.361 85.0059 153.968 85.0059C152.771 85.0059 151.745 85.349 150.89 86.121C150.12 86.7214 149.778 87.5792 149.778 88.6086C149.778 90.2384 151.146 91.4393 153.711 92.4686C155.164 92.8975 156.105 93.3264 156.447 93.5837C157.302 94.0984 157.644 94.7846 157.644 95.5567C157.644 97.2722 156.618 98.0442 154.48 98.0442C152.771 98.0442 151.488 97.1007 150.804 95.2135L149.437 95.7282C150.462 98.2158 152.172 99.4167 154.48 99.4167C157.644 99.4167 159.182 97.9585 159.182 95.2135C159.182 93.5837 157.9 92.2971 155.25 91.2677C153.711 90.753 152.856 90.3241 152.514 90.1526C151.659 89.7237 151.232 89.1232 151.317 88.437C151.317 86.893 152.258 86.2068 153.882 86.2068C155.677 86.4641 156.874 87.3219 157.216 88.8659Z" fill="white"/>
</g>
<defs>
<clipPath id="clip0_8911_2543">
<rect width="436" height="114" fill="white"/>
</clipPath>
</defs>
</svg>
