<svg width="436" height="89" viewBox="0 0 436 89" fill="none" xmlns="http://www.w3.org/2000/svg">
<path d="M94.7831 38.1431V24.1574C95.099 15.5753 98.5744 8.58243 106.473 5.086C109.263 3.76637 112.32 3.11696 115.403 3.18899C118.485 3.26103 121.509 4.05252 124.235 5.50107C126.962 6.94962 129.317 9.01561 131.114 11.5361C132.911 14.0566 134.102 16.9627 134.592 20.0253L135.224 26.3824C135.224 26.7003 135.224 27.0181 134.592 27.0181H121.954C121.638 27.0181 121.322 26.7003 121.322 26.0646C121.322 23.8396 121.006 21.9324 119.743 19.7074C117.215 16.211 111.528 16.5289 109.632 20.9789C108.685 22.5681 108.369 24.1574 108.369 26.0646V62.936C108.369 64.2074 108.369 65.4789 109 66.7503C110.264 69.9289 112.16 71.2003 115.319 71.2003C117.847 71.2003 119.743 69.611 120.69 66.4324C121.322 65.161 121.322 63.8896 121.322 62.6181C121.322 61.9824 121.322 61.6646 122.27 61.6646H134.592C134.908 61.6646 135.224 61.6646 135.224 62.3003C135.224 68.0217 133.96 73.1074 130.485 77.8753C128.918 79.974 126.923 81.7119 124.635 82.9727C122.346 84.2335 119.817 84.9881 117.215 85.186C111.844 85.8217 106.789 84.8681 102.366 81.0539C98.2585 77.8753 96.0468 73.1074 95.099 68.0217C95.3231 58.0614 95.2178 48.0964 94.7831 38.1431ZM401.879 61.6646H407.882C408.514 61.6646 408.829 61.6646 408.829 62.6181C408.829 64.5253 408.829 66.1146 409.777 67.7039C410.725 70.2467 412.621 71.836 415.464 71.836C417.992 71.836 420.203 70.8824 421.467 68.0217C423.363 63.8896 423.047 59.4396 420.835 55.3074C419.256 52.4467 416.728 51.4931 414.201 50.8574H413.885C410.725 49.9039 407.566 48.9503 405.038 47.361C402.354 45.6192 400.103 43.2803 398.46 40.5247C396.817 37.7692 395.824 34.6706 395.56 31.4681C394.612 26.0646 394.928 20.661 397.14 15.5753C399.983 8.26457 405.354 4.13243 412.937 3.49671C417.676 2.861 422.099 3.49671 426.206 6.35743C431.261 9.536 434.105 14.9396 435.053 21.2967L435.685 26.0646C435.685 26.7003 435.685 27.0181 434.737 27.0181H422.731C422.099 27.0181 421.783 27.0181 421.783 26.0646C421.783 24.4753 421.783 22.886 421.151 21.6146C420.203 18.436 417.992 16.8467 415.464 16.8467C414.07 16.7825 412.695 17.1842 411.552 17.9892C410.409 18.7942 409.563 19.9572 409.145 21.2967C408.514 23.8396 408.514 26.3824 409.145 28.9253C409.461 32.1039 411.357 34.011 414.201 35.2824L418.308 36.8717L420.203 37.5074C429.366 40.686 434.421 47.0431 435.685 56.5789C436.316 62.936 436 68.6574 433.473 74.061C430.314 80.4181 425.574 84.2324 418.624 85.186C412.621 86.1396 407.25 84.8681 402.195 80.736C398.565 77.2849 396.222 72.6843 395.56 67.7039L394.928 62.6181C394.928 61.9824 395.244 61.6646 395.876 61.6646H401.879ZM387.661 42.911V29.2431V5.40385C387.661 4.45028 387.661 4.45028 386.714 4.45028H375.024C374.076 4.45028 373.76 4.45028 373.76 5.72171V61.9824C373.76 63.5717 373.76 65.4789 372.812 67.0681C371.864 69.611 370.285 71.2003 367.757 71.2003C364.914 71.2003 363.018 70.2467 361.754 67.386C360.806 65.7967 360.806 63.8896 360.806 61.9824V45.7717V5.40385C360.806 4.45028 360.806 4.45028 359.543 4.45028H348.169C347.221 4.45028 346.905 4.45028 346.905 5.72171C347.141 26.3822 347.352 47.0429 347.537 67.7039C348.485 73.4253 350.696 78.1931 355.435 81.6896C359.058 84.4425 363.542 85.7959 368.073 85.5039C374.392 85.186 379.131 82.961 382.922 77.8753C386.178 73.3576 387.846 67.8775 387.661 62.3003V43.2289V42.911ZM192.725 27.6539V5.40385C192.725 4.45028 192.725 4.45028 193.989 4.45028H205.363C206.311 4.45028 206.627 4.45028 206.627 5.72171V61.9824C206.627 64.5253 206.627 66.7503 208.206 68.3396C208.775 69.1762 209.545 69.8553 210.443 70.3142C211.342 70.7731 212.341 70.997 213.348 70.9654C214.355 70.9337 215.338 70.6475 216.206 70.133C217.075 69.6186 217.8 68.8925 218.316 68.0217C219.224 66.1436 219.658 64.0694 219.58 61.9824V5.72171V5.40385V4.45028H232.534C233.166 4.45028 233.482 4.45028 233.482 5.40385V61.6646C233.482 67.0681 232.534 72.4717 229.374 76.9217C227.731 79.4852 225.491 81.6067 222.848 83.1022C220.206 84.5977 217.24 85.4221 214.209 85.5039C209.717 85.8872 205.237 84.6476 201.571 82.0074C199.243 80.2745 197.288 78.086 195.822 75.5733C194.356 73.0606 193.41 70.2758 193.041 67.386C192.744 65.281 192.638 63.1532 192.725 61.0289V43.5467V34.6467V27.6539ZM323.841 42.911L322.261 47.9967C318.898 59.8654 315.528 71.732 312.151 83.5967C312.151 83.9146 312.151 84.2324 311.519 84.2324C310.887 84.2324 310.887 84.2324 310.887 83.5967L299.198 43.8646L298.566 41.0039L298.25 40.3681V83.2789C298.25 83.9146 298.25 84.2324 296.986 84.2324H286.244C285.612 84.2324 285.296 84.2324 285.296 83.2789V5.40385C285.296 4.76814 285.612 4.45028 286.56 4.45028H297.618C298.566 4.45028 298.882 4.45028 299.198 5.40385L307.728 35.9181L311.519 48.6324L311.835 47.6789L324.157 5.40385C324.157 4.76814 324.473 4.45028 325.421 4.45028H336.479C337.427 4.45028 337.427 4.45028 337.427 5.40385V83.2789C337.427 84.2324 337.427 84.2324 336.479 84.2324H325.737C324.789 84.2324 324.789 84.2324 324.789 83.2789V50.8574V40.3681L323.841 42.5931V42.911ZM242.96 35.9181V83.2789C242.96 83.9146 242.96 84.2324 243.908 84.2324H276.45C277.082 84.2324 277.082 84.2324 277.082 83.2789V71.836C277.082 70.8824 277.082 70.8824 276.134 70.8824H257.809C256.861 70.8824 256.545 70.8824 256.545 69.9289V51.4931C256.545 50.5396 256.861 50.2217 257.809 50.2217H272.974C273.606 50.2217 273.922 50.2217 273.922 49.2681V38.1431C273.922 37.1896 273.606 37.1896 272.658 37.1896H257.809C256.861 37.1896 256.545 37.1896 256.545 35.9181V19.0717C256.545 18.1181 256.861 17.8003 257.809 17.8003C263.812 17.8355 269.815 17.8355 275.818 17.8003C276.766 17.8003 277.082 17.8003 277.082 16.8467V5.72171C277.082 4.76814 277.082 4.45028 275.818 4.45028H244.224C243.276 4.45028 242.96 4.45028 242.96 5.72171V35.9181ZM40.757 43.5467V30.8324V5.40385C40.757 4.76814 40.757 4.45028 39.4932 4.45028H28.4352C27.4874 4.45028 27.1715 4.45028 27.1715 5.72171V62.3003C27.2496 64.3873 26.8156 66.4615 25.9077 68.3396C24.0121 71.836 19.5889 72.4717 16.7454 69.2931C15.4816 67.7039 14.8497 66.1146 14.2179 63.8896C14.2179 63.2539 14.2179 62.936 13.586 62.936C9.16502 63.2846 4.74173 63.6025 0.316406 63.8896C0.452294 64.9458 0.557652 66.0058 0.632348 67.0681C2.84394 77.5574 11.0584 86.1396 22.7483 85.5039C27.4874 85.186 31.9106 83.2789 35.386 79.1467C39.1932 74.6275 41.2171 68.8583 41.0729 62.936V43.5467H40.757ZM183.247 27.0181C183.247 24.7931 183.247 22.2503 182.615 20.0253C181.351 13.6681 178.508 8.58243 172.821 5.72171C168.945 3.66229 164.523 2.88376 160.183 3.49671C154.812 4.13243 150.073 6.67528 146.598 11.1253C143.516 15.7126 141.967 21.1678 142.174 26.7003V60.3931L142.49 67.0681C143.754 73.4253 146.282 78.8289 151.969 82.3253C157.34 85.8217 163.027 86.1396 169.029 84.5503C169.977 84.5503 170.293 84.5503 170.925 85.186C171.714 86.2876 172.558 87.3485 173.453 88.3646C173.453 89.0003 173.769 89.0003 174.4 88.6824C176.912 86.5438 179.439 84.4247 181.983 82.3253L180.403 80.4181L179.14 78.511C178.824 77.8753 178.824 77.5574 179.14 77.2396C182.299 72.7896 183.247 67.7039 183.247 62.3003V49.586V44.5003V38.7789V27.336V27.0181ZM169.661 64.8431L169.029 63.8896L167.766 62.3003C165.049 64.1341 162.311 65.9354 159.551 67.7039C158.919 68.0217 158.919 68.3396 159.551 68.9753C160.226 69.8995 160.858 70.854 161.447 71.836C159.235 71.2003 157.656 69.9289 157.024 68.0217C156.076 66.1146 156.076 63.8896 156.076 61.6646C156.347 48.5254 156.663 35.3872 157.024 22.2503C157.971 19.0717 160.183 17.4824 163.343 17.4824C166.502 17.4824 168.398 19.0717 169.345 22.2503L169.977 26.3824V64.8431H169.661ZM86.8845 67.7039L90.0439 83.9146V84.2324H77.0903C76.7744 84.2324 76.4584 84.2324 76.4584 83.5967C75.6542 79.9854 74.8116 76.3828 73.9309 72.7896C69.0875 73.0256 64.243 73.2375 59.3976 73.4253L58.4497 79.4646L57.8179 83.2789C57.8179 83.9146 57.8179 84.2324 56.87 84.2324H45.4961C44.5483 84.2324 44.5483 84.2324 44.5483 83.2789L52.4468 45.136L54.9744 31.786L56.5541 24.1574L60.3454 5.086C60.3454 4.45028 60.9773 4.45028 61.6092 4.45028H73.615C74.2468 4.45028 74.5628 4.45028 74.5628 5.40385L84.041 52.7646V54.036L87.2005 67.7039H86.8845ZM71.7193 59.1217C72.3512 59.1217 72.3512 59.1217 72.3512 58.486L72.0352 56.8967V55.9431L69.8237 43.2289C68.8751 39.2028 67.9273 35.1767 66.9802 31.1503L64.7686 43.8646C64.0406 48.9516 63.3034 54.0374 62.557 59.1217H72.0352H71.7193Z" fill="white"/>
</svg>
