<svg width="436" height="54" viewBox="0 0 436 54" fill="none" xmlns="http://www.w3.org/2000/svg">
<path d="M424.517 42.8409L427.029 48.0609L421.826 45.5409L419.852 50.9409L417.879 45.5409L412.675 48.0609L415.187 42.8409L409.805 40.8609L415.187 38.8809L412.675 33.6609L417.879 36.1809L419.852 30.7809L421.826 36.1809L427.029 33.6609L424.517 38.8809L429.9 40.8609L424.517 42.8409ZM109.09 26.2809C109.09 39.9609 99.7601 48.7809 85.765 48.7809H65.849V3.78086H85.765C99.7601 3.78086 109.09 12.7809 109.09 26.2809ZM96.5305 26.2809C96.5305 19.6209 92.942 14.9409 85.5856 14.9409H78.2292V37.6209H85.5856C92.942 37.6209 96.5305 32.7609 96.5305 26.2809ZM167.044 26.2809C167.044 39.7809 157.176 49.6809 143.36 49.6809C129.544 49.6809 119.676 39.7809 119.676 26.2809C119.676 12.7809 129.544 2.88086 143.36 2.88086C157.176 2.88086 167.044 12.7809 167.044 26.2809ZM154.305 26.2809C154.305 19.4409 149.819 14.5809 143.181 14.5809C136.542 14.5809 132.056 19.4409 132.056 26.2809C132.056 33.1209 136.542 37.9809 143.181 37.9809C149.819 37.9809 154.305 33.1209 154.305 26.2809ZM205.62 30.0609C205.62 35.2809 202.57 37.9809 197.905 37.9809C193.24 37.9809 190.19 35.2809 190.19 30.0609V3.78086H177.989V30.6009C177.989 42.8409 184.986 49.8609 197.905 49.8609C210.823 49.8609 217.821 42.8409 217.821 30.6009V3.78086H205.62V30.2409V30.0609ZM269.675 36.0009C269.675 44.1009 264.292 48.9609 252.45 48.9609H231.098V3.78086H251.194C263.215 3.78086 268.598 8.64086 268.598 16.7409C268.598 24.8409 266.086 24.4809 262.677 26.2809C266.624 27.7209 269.495 31.5009 269.495 36.0009M243.299 21.2409H251.014C254.423 21.2409 256.038 19.9809 256.038 17.4609C256.038 14.9409 254.244 13.6809 251.014 13.6809H243.299V21.2409ZM257.115 35.1009C257.115 32.5809 255.321 31.1409 251.732 31.1409H243.299V38.8809H251.732C255.321 38.8809 257.115 37.6209 257.115 34.9209M295.153 3.78086H282.952V48.9609H316.863V37.6209H295.153V3.78086ZM327.09 48.9609H362.257V38.1609H339.291V31.6809H360.642V20.8809H339.291V14.9409H362.257V3.78086H327.09V48.9609ZM389.171 30.6009C389.171 36.1809 387.018 38.1609 383.25 38.1609C379.482 38.1609 377.688 36.9009 376.073 35.4609L370.152 45.0009C372.843 47.7009 377.688 50.0409 384.506 50.0409C394.733 50.0409 401.551 44.1009 401.551 31.8609V3.78086H389.35V30.6009H389.171ZM51.6745 38.8809C51.8539 38.8809 52.0334 39.2409 51.8539 39.4209C51.1362 41.4009 50.2391 43.3809 48.6243 45.1809C48.2655 45.5409 47.7272 45.9009 47.1889 46.2609C46.8301 46.2609 46.4712 46.6209 46.1124 46.6209C45.7535 46.6209 45.2153 46.6209 44.8564 46.2609C43.9593 45.5409 43.9593 44.8209 43.9593 44.1009V43.0209C43.421 43.7409 42.7033 44.2809 41.9856 45.0009C41.2679 45.5409 40.3708 46.2609 39.2943 46.4409C38.2177 46.6209 38.0383 46.6209 37.5 46.4409C36.9618 46.2609 36.2441 45.7209 36.0646 45.1809C35.5264 44.2809 35.1675 43.3809 35.1675 42.3009C34.8087 43.0209 34.2704 43.5609 33.7321 44.1009C32.6556 45.3609 31.0408 46.0809 29.2465 46.2609C26.0169 46.6209 22.7873 45.1809 20.4548 43.5609C19.3782 44.2809 18.3017 45.0009 16.8663 45.3609C15.2515 45.9009 13.6367 46.0809 12.0218 45.7209C10.407 45.3609 8.79221 45.0009 7.53624 43.7409C6.99797 43.2009 6.28027 42.3009 6.28027 41.2209C6.28027 40.1409 6.81854 39.0609 7.53624 38.5209C9.15105 37.4409 10.9453 37.4409 12.5601 37.6209C15.4309 37.9809 18.1222 39.2409 20.6342 40.6809C21.3519 39.9609 22.0696 39.0609 22.7873 38.1609C24.9404 35.2809 26.914 32.2209 28.8877 28.9809C27.4523 28.6209 26.0169 27.9009 24.7609 27.0009C22.249 24.8409 20.4548 21.7809 20.2753 18.5409C20.2753 18.1809 20.4548 18.0009 20.8136 17.8209C21.1725 17.8209 21.3519 17.8209 21.3519 18.1809C21.8901 21.0609 23.505 23.5809 25.8375 25.0209C26.914 25.7409 28.17 26.2809 29.6054 26.4609H29.9642C30.6819 25.2009 31.3996 23.9409 32.1173 22.6809C33.7321 19.9809 35.1675 17.4609 36.9618 14.9409C38.5766 12.4209 40.3708 9.72086 42.7033 7.56086C43.7799 6.48086 45.3947 5.40086 47.3683 5.40086C49.342 5.40086 49.342 5.76086 50.0597 6.30086C50.9568 6.84086 51.3157 7.92086 51.4951 8.64086C51.8539 10.4409 51.4951 12.0609 51.1362 13.5009C50.7774 15.1209 50.0597 16.5609 49.1626 17.8209C45.9329 23.2209 40.1914 27.1809 33.9115 28.4409C33.0144 28.4409 32.4762 28.8009 31.579 28.8009C31.0408 29.7009 30.3231 30.7809 29.7848 31.6809C28.17 34.2009 26.3757 36.7209 24.4021 39.2409C23.6844 39.9609 23.1461 40.6809 22.249 41.4009C24.4021 42.6609 26.5552 43.7409 28.8877 43.5609C30.1436 43.5609 31.3996 43.0209 32.4762 42.1209C33.5527 41.2209 34.4498 40.1409 35.3469 38.8809C35.3469 38.7009 35.3469 38.3409 35.5264 38.1609C36.2441 36.3609 37.1412 34.7409 38.2177 33.3009C39.2943 31.8609 40.5502 30.4209 42.165 29.3409C42.8827 28.8009 43.7799 28.2609 44.8564 27.9009C45.9329 27.5409 45.9329 27.7209 46.6506 27.9009C47.3683 27.9009 47.9066 28.4409 48.2655 28.9809C48.8037 29.8809 48.9832 30.6009 48.8037 31.3209C49.1626 30.9609 49.7008 30.4209 50.0597 30.0609C50.2391 30.0609 50.598 30.0609 50.7774 30.0609C50.7774 30.2409 50.7774 30.4209 50.7774 30.7809C49.5214 32.4009 48.4449 34.0209 47.7272 36.0009C46.8301 37.8009 46.2918 39.7809 45.9329 41.7609C45.7535 42.6609 45.9329 43.7409 45.9329 43.9209H46.4712C46.8301 43.9209 47.1889 43.5609 47.5478 43.2009C48.9832 41.9409 50.0597 40.1409 50.9568 38.3409C50.9568 38.1609 51.3157 37.9809 51.6745 38.1609M34.6292 25.0209C34.2704 25.7409 33.7321 26.4609 33.3733 27.1809H33.7321C39.2943 26.2809 44.4976 22.6809 47.5478 17.8209C48.9832 15.4809 50.2391 12.4209 49.7009 9.90086C49.1626 7.38086 48.4449 8.10086 47.3683 8.10086C46.2918 8.10086 45.2153 9.00086 44.1387 9.90086C42.165 11.8809 40.5502 14.5809 39.1148 17.1009L34.4498 24.8409L34.6292 25.0209ZM18.4811 42.8409C17.7634 42.4809 16.8663 41.9409 16.1486 41.5809C14.8926 41.0409 13.4572 40.5009 12.2013 40.1409C10.9453 39.9609 9.33048 39.7809 8.43336 40.5009C7.53624 41.0409 7.53624 42.3009 8.43336 43.2009C9.33048 44.1009 10.7659 44.4609 12.0218 44.6409C13.2778 44.6409 14.7132 44.6409 15.9692 44.2809C16.8663 43.9209 17.584 43.5609 18.3017 43.0209M43.9593 39.6009C44.8564 38.1609 45.7535 36.7209 46.4712 35.1009C46.8301 34.3809 47.0095 33.4809 47.1889 32.7609C47.1889 32.0409 47.1889 31.1409 47.0095 30.7809C46.4712 29.8809 44.8564 30.6009 43.6004 31.6809C42.3445 32.7609 41.2679 34.0209 40.3708 35.4609C39.4737 36.9009 38.5766 38.3409 38.0383 39.9609C37.5 41.4009 37.1412 43.2009 37.6795 44.1009C38.0383 44.6409 38.2177 44.6409 38.9354 44.4609C39.4737 44.2809 40.1914 43.7409 40.7297 43.2009C41.9856 42.1209 43.0622 40.8609 44.1387 39.4209" fill="white"/>
</svg>
