<svg width="437" height="65" viewBox="0 0 437 65" fill="none" xmlns="http://www.w3.org/2000/svg">
<g clip-path="url(#clip0_8911_2534)">
<path d="M11.126 44.1558C11.6152 44.9514 12.2426 45.604 13.0136 46.1188C13.7846 46.6232 14.6725 47.0028 15.6721 47.2446C16.6744 47.4864 17.7139 47.606 18.7959 47.606C19.5669 47.606 20.3751 47.5228 21.2205 47.3512C22.0659 47.1822 22.8395 46.9144 23.5308 46.5556C24.222 46.1916 24.8015 45.7054 25.2641 45.1048C25.7267 44.5016 25.9553 43.7372 25.9553 42.8168C25.9553 41.2672 24.86 40.1076 22.6853 39.3354C20.5027 38.5632 17.4587 37.7832 13.5559 37.011C11.9864 36.6746 10.4317 36.2756 8.89552 35.815C7.46826 35.3948 6.10744 34.7832 4.85188 33.9976C3.69817 33.274 2.72517 32.3064 2.00459 31.1662C1.28678 30.0326 0.922565 28.6416 0.922565 26.9932C0.922565 24.5752 1.41971 22.5862 2.4273 21.0366C3.40866 19.5033 4.77512 18.2412 6.39649 17.3706C8.12541 16.4433 10.0007 15.8053 11.9449 15.483C13.9999 15.119 16.1028 14.937 18.2642 14.937C20.4203 14.937 22.5179 15.1346 24.5463 15.5194C26.4581 15.8655 28.2952 16.5295 29.9777 17.4824C31.5658 18.397 32.9225 19.6501 33.9469 21.1484C35.0023 22.6746 35.6271 24.6012 35.8345 26.9256H25.4396C25.2827 24.9366 24.4825 23.595 23.0469 22.8956C21.6113 22.1936 19.9178 21.8452 17.9638 21.8452C17.3443 21.8452 16.6797 21.8842 15.9619 21.9544C15.2441 22.0298 14.5848 22.1806 13.9999 22.4276C13.4097 22.6694 12.9099 23.0256 12.4952 23.4806C12.0858 23.9408 11.8784 24.557 11.8784 25.3266C11.8784 26.247 12.2346 27.001 12.9578 27.5834C13.6756 28.1658 14.6167 28.6338 15.7732 29.0004C16.9296 29.3644 18.2509 29.692 19.7423 29.9832C21.2338 30.2744 22.7465 30.5916 24.2884 30.927C25.8836 31.2676 27.4335 31.681 28.9515 32.162C30.3855 32.6114 31.7463 33.2593 32.9925 34.086C34.1755 34.8842 35.1246 35.88 35.8424 37.063C36.5602 38.2538 36.9245 39.715 36.9245 41.457C36.9245 43.927 36.4007 45.9966 35.3453 47.671C34.3179 49.3158 32.9044 50.6973 31.2219 51.701C29.4335 52.7575 27.4618 53.4837 25.405 53.8434C20.9642 54.6791 16.4002 54.6685 11.9635 53.8122C9.75688 53.3754 7.79488 52.6526 6.07481 51.6334C4.36545 50.625 2.91564 49.2463 1.8371 47.6034C0.733809 45.9342 0.130321 43.8438 0.0292969 41.3244H10.4242C10.3923 42.4008 10.6422 43.3576 11.126 44.1558ZM53.535 44.4782C55.1806 45.9784 57.5361 46.7246 60.62 46.7246C62.8293 46.7246 64.7301 46.2046 66.3226 45.1672C67.915 44.1272 68.8881 43.0274 69.2523 41.8626H78.8815C77.3449 46.3632 74.9814 49.5872 71.7965 51.519C68.6116 53.456 64.7567 54.4258 60.2452 54.4258C57.1134 54.4258 54.2874 53.95 51.7671 53.0062C49.2494 52.0624 47.12 50.7208 45.3733 48.9736C43.5991 47.1886 42.2231 45.0629 41.3323 42.731C40.3753 40.313 39.9047 37.6454 39.9047 34.7386C39.8826 32.0561 40.3796 29.3936 41.3695 26.8918C42.3452 24.4738 43.7356 22.3782 45.5275 20.6102C47.3677 18.8155 49.5547 17.397 51.9612 16.4372C54.4549 15.418 57.2144 14.9136 60.2452 14.9136C63.6348 14.9136 66.5858 15.5324 69.1034 16.7596C71.5363 17.9274 73.6586 19.6319 75.3031 21.7386C76.9407 23.8611 78.1325 26.2796 78.8097 28.8548C79.5326 31.5793 79.793 34.4015 79.5807 37.2086H50.8472C50.9881 40.5574 51.892 42.9754 53.535 44.4782ZM65.8972 24.726C64.5892 23.374 62.6006 22.6954 59.9288 22.6954C58.1821 22.6954 56.7306 22.9736 55.5768 23.53C54.4203 24.0864 53.4925 24.778 52.8013 25.6022C52.11 26.4238 51.6209 27.2974 51.3391 28.2152C51.0546 29.1356 50.8871 29.9572 50.8339 30.6852H68.6275C68.1171 28.0644 67.2079 26.0832 65.8999 24.726H65.8972ZM95.8243 1.6328V53.4872H84.8845V1.6328H95.8243ZM100.291 22.841V15.938H106.839V13.0312C106.839 9.6954 107.942 6.9602 110.151 4.8256C112.36 2.6988 115.7 1.6276 120.166 1.6276C121.139 1.6276 122.115 1.6666 123.093 1.7342C124.069 1.8122 125.023 1.8668 125.943 1.9162V9.62C124.614 9.47365 123.277 9.40246 121.939 9.4068C120.45 9.4068 119.387 9.7344 118.741 10.387C118.098 11.0396 117.784 12.142 117.784 13.6916V15.9406H125.331V22.8436H117.781V53.4898H106.841V22.841H100.291ZM153.137 29.2292V38.0874H129.952V29.2292H153.137ZM176.444 14.3104V19.1048H176.599C177.936 17.0716 179.629 15.5948 181.684 14.6718C183.74 13.754 185.997 13.2912 188.461 13.2912C191.59 13.2912 194.291 13.8476 196.548 14.963C198.732 16.0192 200.651 17.5327 202.168 19.396C203.694 21.3047 204.819 23.4887 205.481 25.8232C206.199 28.2672 206.563 30.8256 206.563 33.4854C206.563 36.0048 206.199 38.4254 205.481 40.7472C204.803 42.9905 203.693 45.0864 202.211 46.9222C200.733 48.7272 198.865 50.1911 196.742 51.2096C194.56 52.273 192.008 52.8034 189.078 52.8034C186.727 52.8261 184.4 52.3423 182.261 51.3864C180.204 50.4622 178.435 49.0192 177.136 47.2056H176.981V65H166.042V14.3104H176.444ZM190.657 44.0856C191.867 43.4096 192.84 42.5204 193.584 41.4336C194.328 40.3416 194.855 39.0676 195.163 37.6194C195.474 36.1613 195.63 34.6758 195.628 33.1864C195.628 31.6862 195.458 30.212 195.123 28.7534C194.817 27.3697 194.255 26.0523 193.464 24.8664C192.703 23.7367 191.687 22.7922 190.495 22.1052C189.288 21.4032 187.81 21.0548 186.068 21.0548C184.269 21.0548 182.772 21.4084 181.562 22.1052C180.353 22.8072 179.38 23.7146 178.635 24.8274C177.891 25.9454 177.364 27.2298 177.056 28.678C176.743 30.1595 176.587 31.6685 176.591 33.1812C176.591 34.6814 176.761 36.1556 177.096 37.6142C177.431 39.0624 177.968 40.3364 178.715 41.4258C179.459 42.5152 180.448 43.4018 181.684 44.0778C182.913 44.7538 184.404 45.0918 186.151 45.0918C187.951 45.1048 189.455 44.7616 190.657 44.0856ZM211.808 24.9496C212.781 22.5056 214.172 20.4204 215.964 18.7044C217.818 16.9536 220.02 15.5943 222.434 14.7108C224.952 13.767 227.773 13.2912 230.91 13.2912C234.039 13.2912 236.881 13.767 239.417 14.7108C241.847 15.586 244.064 16.946 245.928 18.7044C247.755 20.4713 249.173 22.6009 250.086 24.9496C251.059 27.3936 251.548 30.1158 251.548 33.1188C251.548 36.1192 251.059 38.8284 250.086 41.2542C249.166 43.5903 247.749 45.7085 245.928 47.4682C244.128 49.1894 241.959 50.505 239.42 51.4228C236.873 52.3432 234.039 52.8034 230.91 52.8034C227.781 52.8034 224.952 52.3406 222.434 51.4254C220.015 50.5693 217.809 49.2195 215.964 47.4656C214.139 45.7104 212.722 43.592 211.808 41.2542C210.833 38.8362 210.343 36.1244 210.343 33.1162C210.343 30.1158 210.827 27.3936 211.806 24.9496H211.808ZM221.741 37.5128C222.052 38.9428 222.575 40.222 223.32 41.3608C224.061 42.4977 225.082 43.4345 226.289 44.0856C227.518 44.7616 229.062 45.0996 230.91 45.0996C232.758 45.0996 234.313 44.7616 235.57 44.0856C236.828 43.4096 237.835 42.4996 238.574 41.3608C239.319 40.222 239.843 38.9428 240.151 37.5128C240.768 34.6014 240.768 31.5972 240.151 28.6858C239.877 27.3165 239.341 26.0101 238.572 24.8352C237.809 23.7058 236.779 22.7722 235.57 22.113C234.316 21.411 232.758 21.06 230.91 21.06C229.062 21.06 227.526 21.4162 226.289 22.113C225.058 22.815 224.064 23.7198 223.32 24.8352C222.575 25.9506 222.049 27.235 221.741 28.6832C221.122 31.5953 221.122 34.6007 221.741 37.5128ZM267.576 14.3104V21.2836H267.731C268.807 18.9117 270.576 16.903 272.814 15.509C273.944 14.807 275.153 14.261 276.435 13.8736C277.734 13.484 279.085 13.2877 280.444 13.2912C281.164 13.2912 281.956 13.4108 282.828 13.6526V23.2388C282.218 23.1282 281.602 23.0441 280.983 22.9866C280.291 22.9135 279.595 22.8771 278.899 22.8774C276.897 22.8774 275.206 23.1946 273.816 23.8212C272.497 24.3943 271.345 25.2799 270.464 26.3978C269.596 27.5328 268.979 28.8316 268.651 30.212C268.28 31.7593 268.099 33.3444 268.113 34.9336V51.8544H257.171V14.3052H267.576V14.3104ZM312.102 14.3104V21.216H304.086V39.806C304.086 41.548 304.397 42.7128 305.014 43.29C305.633 43.8724 306.862 44.1636 308.709 44.1636C309.326 44.1636 309.911 44.1376 310.483 44.0934C311.046 44.0414 311.591 43.9738 312.102 43.8724V51.8622C311.174 52.0078 310.145 52.104 309.018 52.1534C307.888 52.2054 306.782 52.2314 305.705 52.2314C304.014 52.2314 302.409 52.1222 300.891 51.9012C299.487 51.7216 298.13 51.2896 296.887 50.6272C295.735 50.0026 294.788 49.0725 294.154 47.944C293.481 46.7844 293.152 45.2582 293.152 43.3706V21.2186H286.529V14.3182H293.152V3.0602H304.094V14.3182H312.102V14.3104ZM329.276 14.3104V21.2836H329.43C329.94 20.1162 330.632 19.0398 331.512 18.0544C332.378 17.0648 333.389 16.2061 334.513 15.5064C335.643 14.8044 336.85 14.2584 338.134 13.8736C339.431 13.4844 340.781 13.2881 342.138 13.2912C342.856 13.2912 343.648 13.4108 344.528 13.6526V23.2388C343.916 23.1284 343.299 23.0443 342.68 22.9866C341.989 22.9137 341.294 22.8772 340.598 22.8774C338.597 22.8774 336.906 23.1946 335.515 23.8212C334.196 24.3943 333.044 25.2799 332.163 26.3978C331.295 27.5328 330.678 28.8316 330.35 30.212C329.982 31.7597 329.801 33.3446 329.813 34.9336V51.8544H318.87V14.3052H329.276V14.3104ZM346.92 25.8596C347.075 23.4416 347.713 21.4292 348.848 19.8328C349.966 18.2452 351.441 16.929 353.16 15.9848C354.994 14.9839 356.983 14.2839 359.049 13.9126C361.22 13.5008 363.427 13.2927 365.639 13.2912C367.641 13.2912 369.67 13.4238 371.725 13.689C373.669 13.9245 375.564 14.4507 377.345 15.249C379.038 16.0212 380.429 17.095 381.503 18.4782C382.585 19.8562 383.122 21.6866 383.122 23.9616V43.4954C383.122 45.1932 383.223 46.813 383.43 48.3574C383.632 49.9096 383.996 51.0692 384.512 51.8414H373.415C373.003 50.6692 372.746 49.4503 372.65 48.2144C370.936 49.8914 368.815 51.1153 366.485 51.7712C364.134 52.448 361.696 52.7913 359.245 52.7904C357.452 52.8056 355.665 52.587 353.931 52.1404C352.372 51.7438 350.907 51.0531 349.619 50.1072C348.385 49.1885 347.395 47.9937 346.732 46.6232C346.04 45.2192 345.69 43.5474 345.69 41.6156C345.69 39.4862 346.086 37.7286 346.886 36.3454C347.686 34.9674 348.707 33.865 349.97 33.0434C351.29 32.1925 352.748 31.5665 354.282 31.1922C355.898 30.7814 357.525 30.459 359.171 30.212C360.783 29.9743 362.402 29.7801 364.026 29.6296C365.453 29.5104 366.87 29.2924 368.266 28.977C369.502 28.6858 370.475 28.262 371.193 27.703C371.913 27.1466 372.248 26.3354 372.195 25.272C372.195 24.1566 371.998 23.2778 371.616 22.62C371.25 21.9873 370.72 21.4607 370.079 21.0938C369.386 20.7176 368.628 20.4707 367.843 20.3658C366.937 20.2401 366.023 20.1785 365.108 20.1812C362.951 20.1812 361.253 20.618 360.024 21.4916C358.788 22.3652 358.07 23.816 357.868 25.8492H346.92V25.8596ZM372.182 33.4854C371.672 33.8982 371.083 34.206 370.449 34.3902C369.715 34.6174 368.967 34.7997 368.21 34.9362C367.38 35.0864 366.545 35.2061 365.706 35.295C364.834 35.3912 363.959 35.5108 363.087 35.659C362.268 35.8043 361.458 35.998 360.662 36.2388C359.862 36.4806 359.171 36.8108 358.581 37.2216C357.99 37.6292 357.503 38.1637 357.156 38.7842C356.794 39.4108 356.619 40.2142 356.619 41.184C356.619 42.1018 356.794 42.8818 357.156 43.5084C357.512 44.135 358.001 44.6368 358.621 44.9956C359.237 45.3596 359.955 45.6118 360.777 45.7574C361.596 45.903 362.441 45.9706 363.321 45.9706C365.477 45.9706 367.144 45.6352 368.332 44.9514C369.515 44.2754 370.387 43.4642 370.951 42.5204C371.515 41.5766 371.866 40.6224 371.993 39.6526C372.121 38.6828 372.187 37.9106 372.187 37.3282V33.4854H372.182ZM391.826 8.4994V0H402.76V8.4968H391.826V8.4994ZM402.768 14.3104V51.8596H391.834V14.3104H402.768ZM434.814 14.3104V21.216H426.802V39.806C426.802 41.548 427.11 42.7128 427.727 43.29C428.346 43.8724 429.574 44.1636 431.422 44.1636C432.039 44.1636 432.632 44.1376 433.195 44.0934C433.759 44.0414 434.296 43.9738 434.814 43.8724V51.8622C433.887 52.0078 432.858 52.104 431.73 52.1534C430.603 52.2054 429.495 52.2314 428.421 52.2314C426.809 52.2379 425.199 52.1275 423.603 51.9012C422.2 51.7203 420.843 51.2885 419.6 50.6272C418.448 50.0026 417.501 49.0725 416.867 47.944C416.194 46.7844 415.867 45.2582 415.867 43.3706V21.2186H409.245V14.3182H415.859V3.0602H426.802V14.3182H434.814V14.3104Z" fill="white"/>
</g>
<defs>
<clipPath id="clip0_8911_2534">
<rect width="436" height="65" fill="white" transform="translate(0.0292969)"/>
</clipPath>
</defs>
</svg>
