<svg width="436" height="182" viewBox="0 0 436 182" fill="none" xmlns="http://www.w3.org/2000/svg">
<g clip-path="url(#clip0_8911_2577)">
<path fill-rule="evenodd" clip-rule="evenodd" d="M83.6125 62.6758C90.0285 77.4464 104.275 86.2002 123.416 86.2002C150.108 86.2002 167.339 69.1314 167.339 43.2803C167.339 16.8332 151.54 0.360431 123.416 0.360431C96.6039 0.360431 79.8515 17.0723 79.8515 43.2803C79.8515 44.8398 79.9154 46.3636 80.0323 47.8482C76.2856 42.7093 69.8449 39.651 61.5574 36.1894C54.1383 33.1811 48.3921 29.3341 48.3921 19.838C48.3921 11.0592 54.0141 4.45008 63.2339 4.45008C68.9763 4.45008 75.4384 7.21577 77.8346 13.3467L79.0291 13.2253C79.5077 9.86012 80.5889 5.8918 81.4254 3.84698L81.1844 3.36522C77.4766 1.80573 71.2521 0.599527 64.3115 0.599527C49.4698 0.599527 39.2965 9.73521 39.2965 23.0819C39.2965 37.5098 48.9912 41.5995 58.0834 45.6856C67.0622 49.7752 74.3609 54.1004 74.3609 63.9605C74.3609 76.5827 64.6695 81.7537 56.1728 81.7537C47.7931 81.7537 41.8096 77.5427 39.0589 70.8123L37.861 71.0549C37.0209 74.3024 36.0637 79.7089 35.8262 82.4745C39.4134 84.4016 48.1513 85.8398 54.3758 85.8398C70.1462 85.8398 82.5208 76.3044 83.6125 62.6758ZM123.416 4.20741C143.763 4.20741 156.446 17.6754 156.446 43.2839C156.446 69.1315 143.401 82.1105 123.416 82.1105C103.906 82.1105 90.7409 69.0101 90.7409 43.2839C90.7409 16.8332 103.548 4.20741 123.416 4.20741ZM170.685 83.9163L171.043 84.2803C174.192 84.1259 177.344 84.045 180.497 84.0376C188.398 84.0376 201.79 84.1554 212.201 84.398C215.433 75.9832 221.186 64.3209 227.407 52.1805C228.967 49.1721 230.761 47.006 233.632 46.6491C236.149 46.2887 240.817 46.1673 246.439 46.1673C250.749 46.1673 255.056 46.2887 257.807 46.4064C261.88 46.6491 263.794 47.9695 265.708 52.5373C269.777 61.9157 275.403 76.2223 278.515 84.762C281.386 84.398 289.287 84.1554 290.723 84.1554L291.085 83.7985C282.223 67.8039 264.634 27.6462 253.383 0L251.586 0.121335C237.208 25.7584 221.481 53.4795 206.823 78.6311C201.198 79.5269 195.941 79.9515 191.269 79.9515C183.492 79.9515 181.695 78.5062 181.454 72.0149C181.213 65.7627 181.213 56.8661 181.213 45.086V39.0729C181.213 28.2528 181.695 12.144 182.772 2.16259L182.414 1.80573C178.824 2.16259 174.393 2.40525 171.521 2.40525L171.163 2.76568C171.879 12.144 172.241 28.2528 172.241 39.0729V45.086C172.241 55.9061 171.766 74.4202 170.685 83.9163ZM235.188 37.8703C237.705 32.5816 242.728 23.5637 246.201 18.0358C247.038 16.7083 247.758 15.991 248.594 15.991C249.431 15.991 250.267 16.5906 250.987 18.0358C254.099 23.685 257.569 32.1034 259.484 37.2707C260.561 40.1542 259.725 41.4782 257.091 41.8386C254.457 42.199 250.267 42.3204 246.797 42.3204C244.404 42.3204 239.977 42.199 237.464 41.8386C234.83 41.4782 234.11 40.0329 235.188 37.8703ZM328.538 85.7184C340.388 85.7184 350.2 81.7537 353.911 78.6276C354.39 77.1823 354.989 72.9784 355.106 71.6545L354.269 71.4154C350.079 76.465 340.505 81.0328 330.452 81.0328C309.865 81.0328 294.19 69.731 294.19 43.2803C294.19 18.0323 307.713 4.68917 328.655 4.68917C339.789 4.68917 348.764 8.53616 352.114 16.951L353.791 16.7119C354.393 12.9827 355.347 9.49968 356.424 6.37357C351.756 3.72564 340.984 0.842196 329.378 0.842196C299.571 0.842196 283.534 16.5905 283.534 43.2803C283.534 70.3305 301.726 85.7184 328.538 85.7184ZM398.305 84.398C398.305 82.5959 398.543 79.8302 398.784 78.3885L398.426 78.0245C392.487 79.307 386.429 79.953 380.355 79.9515C373.414 79.9515 371.855 78.3885 371.493 73.2175C371.018 65.5236 370.897 59.9922 370.897 51.3383V49.2899C370.897 42.4381 371.376 41.9599 376.406 41.9599C383.467 41.9599 391.726 42.4381 395.912 42.9199C395.912 41.3568 396.033 38.5947 396.271 37.1494L395.916 36.789C392.201 37.3921 383.467 37.8703 376.406 37.8703C371.975 37.8703 370.897 37.6312 370.897 31.3754V29.0915C370.897 25.1267 371.018 17.7932 371.376 12.0227C371.617 7.81529 372.815 6.61267 379.036 6.61267C385.622 6.61267 393.52 7.33353 397.947 8.29706C397.947 6.61267 398.188 4.08608 398.426 2.52302L398.068 2.16616C390.886 2.40526 379.993 2.52302 372.096 2.52302C368.746 2.52302 365.155 2.40526 362.043 2.16616L361.564 2.64435C362.163 12.2618 362.28 28.2528 362.28 39.0729V45.086C362.28 55.9061 361.805 74.4202 360.728 83.9163L361.082 84.2767C363.957 84.1589 366.949 84.0376 370.54 84.0376C378.437 84.0376 389.809 84.1589 398.305 84.398Z" fill="white"/>
<path fill-rule="evenodd" clip-rule="evenodd" d="M20.5873 172.019C12.8067 172.019 11.0131 170.573 10.772 164.082C10.531 157.833 10.531 148.937 10.531 137.153V131.143C10.531 120.323 11.0131 104.211 12.0871 94.2331L11.7326 93.8691C8.13476 94.226 3.70741 94.4722 0.836191 94.4722L0.478175 94.8362C1.19775 104.211 1.55577 120.323 1.55577 131.143V137.153C1.55577 147.973 1.07723 166.487 -0.00390625 175.983L0.361199 176.347C3.5102 176.194 6.66228 176.113 9.81496 176.105C17.7126 176.105 29.084 176.226 39.4949 176.465C39.4949 174.663 39.7359 171.897 39.9734 170.455L39.6189 170.095C32.6713 171.415 26.2128 172.019 20.5873 172.019Z" fill="white"/>
<path fill-rule="evenodd" clip-rule="evenodd" d="M74.0235 92.4316C47.2149 92.4316 30.459 109.144 30.459 135.352C30.459 161.56 47.5729 178.271 74.0235 178.271C100.715 178.271 117.95 161.199 117.95 135.352C117.95 108.901 102.151 92.4316 74.0235 92.4316ZM74.0235 174.182C54.517 174.182 41.3519 161.078 41.3519 135.352C41.3519 108.901 54.1554 96.2751 74.0235 96.2751C94.3702 96.2751 107.06 109.743 107.06 135.352C107.06 161.199 94.0122 174.182 74.0235 174.182Z" fill="white"/>
<path fill-rule="evenodd" clip-rule="evenodd" d="M193.824 94.476L193.463 94.1121C190.953 94.3547 188.319 94.476 185.445 94.476L185.087 94.8329C186.285 104.932 187.479 127.293 187.479 144.726V146.171C187.479 151.703 186.88 154.586 185.445 154.586C184.608 154.586 183.173 153.744 180.539 151.46C167.611 138.959 141.643 112.626 123.93 91.8281L122.37 92.4277C122.491 97.2382 122.732 112.987 122.732 128.135V134.148C122.732 144.605 122.37 166.491 121.413 176.226L121.775 176.587C124.284 176.348 126.915 176.23 129.793 176.23L130.151 175.866C128.953 165.645 127.758 142.203 127.758 123.207V120.802C127.758 116.955 128.237 114.792 129.793 114.792C130.991 114.792 133.263 116.477 135.298 118.518C151.575 134.627 180.897 165.527 191.07 177.55L192.984 176.469C192.626 170.456 192.506 154.707 192.506 142.442V136.432C192.506 125.973 192.864 104.093 193.824 94.476Z" fill="white"/>
<path fill-rule="evenodd" clip-rule="evenodd" d="M314.813 92.4316C294.494 92.4316 279.961 102.031 274.109 118.09C269.451 100.782 255.818 94.2338 233.554 94.2338C226.73 94.2338 217.514 94.5942 212.604 94.5942C209.021 94.5942 205.43 94.4765 202.318 94.2338L201.832 94.7156C202.435 104.333 202.552 120.32 202.552 131.144V137.154C202.552 147.974 202.073 166.488 200.999 175.987L201.353 176.344C204.948 176.344 209.854 176.227 213.087 176.227C218.474 176.227 224.575 176.469 230.321 176.469C249.512 176.469 267.094 169.414 273.425 150.45C278.809 167.801 293.885 178.271 314.813 178.271C341.501 178.271 358.739 161.199 358.739 135.352C358.739 108.901 342.937 92.4316 314.813 92.4316ZM227.687 172.141C217.514 172.141 212.966 171.298 212.37 165.167C211.768 159.397 211.53 145.451 211.53 137.154V131.144C211.53 120.32 211.888 109.743 212.37 104.094C212.725 99.4047 215.479 98.4412 230.558 98.4412C250.668 98.4412 265.268 105.778 265.268 133.667C265.268 165.407 245.758 172.141 227.687 172.141ZM314.813 174.182C295.303 174.182 282.141 161.078 282.141 135.352C282.141 108.901 294.945 96.2751 314.813 96.2751C335.159 96.2751 347.842 109.743 347.842 135.352C347.842 161.199 334.798 174.182 314.813 174.182Z" fill="white"/>
<path fill-rule="evenodd" clip-rule="evenodd" d="M433.291 136.436C433.291 125.977 433.649 104.094 434.606 94.4764L434.252 94.116C431.735 94.3551 429.101 94.4728 426.23 94.4728L425.868 94.8368C427.067 104.936 428.265 127.297 428.265 144.73V146.172C428.265 151.703 427.666 154.586 426.23 154.586C425.393 154.586 423.958 153.748 421.324 151.464C408.397 138.959 382.428 112.626 364.715 91.832L363.152 92.428C363.276 97.2421 363.517 112.99 363.517 128.139V134.149C363.517 144.608 363.155 166.488 362.198 176.227L362.556 176.59C365.073 176.348 367.707 176.227 370.578 176.227L370.936 175.87C369.741 165.649 368.543 142.207 368.543 123.211V120.806C368.543 116.959 369.022 114.793 370.578 114.793C371.773 114.793 374.048 116.477 376.083 118.522C392.36 134.631 421.682 165.531 431.855 177.55L433.77 176.469C433.412 170.46 433.291 154.708 433.291 142.446V136.436Z" fill="white"/>
</g>
<defs>
<clipPath id="clip0_8911_2577">
<rect width="436" height="182" fill="white"/>
</clipPath>
</defs>
</svg>
