<svg width="436" height="52" viewBox="0 0 436 52" fill="none" xmlns="http://www.w3.org/2000/svg">
<path d="M47.5479 47.5715C48.5542 47.1945 50.7548 46.504 54.1512 46.504C56.5407 46.504 60.377 46.8181 63.8358 47.1321C66.6658 47.3833 69.3073 47.5715 70.6275 47.5715C73.52 47.5715 75.7216 42.9233 77.9221 38.0867C77.7332 37.8356 77.4192 37.7097 77.1048 37.7097C76.8533 37.7097 76.5389 37.7727 76.3504 38.1491C72.7026 44.8701 67.6721 45.1213 61.9492 45.1213C56.6042 45.1213 56.0378 44.1791 56.0378 40.473V11.3905C56.0378 5.98817 56.9186 5.79993 58.5533 5.79993C58.8678 5.79993 58.9308 5.61117 58.9308 5.36053C58.9308 4.98353 58.6793 4.48069 58.5533 4.35537C57.4845 4.60653 55.7234 4.92061 53.2708 4.92061C50.8183 4.92061 48.9946 4.60653 47.9259 4.35537C47.8004 4.48069 47.5484 4.98353 47.5484 5.36053C47.5484 5.61169 47.6114 5.79993 47.9259 5.79993C49.624 5.79993 50.5038 5.98869 50.5038 11.3905V40.4735C50.5038 44.1796 49.5605 46.0641 47.5479 46.0641C47.1705 46.0641 47.045 46.2528 47.045 46.5035C47.045 46.8175 47.2965 47.2569 47.5479 47.571V47.5715ZM280.234 47.4946C281.111 47.2445 282.489 46.869 284.242 46.869C285.994 46.869 287.623 47.2439 288.499 47.4946C288.687 47.2445 288.874 46.7437 288.874 46.3688C288.874 46.1187 288.811 45.9939 288.499 45.9939C286.809 45.9939 285.744 45.6808 285.744 40.3654V14.6774C285.744 14.1132 286.121 13.9884 286.497 14.4267L313.854 46.6407C313.98 46.829 314.293 47.0796 314.795 47.0796C315.172 47.0796 315.611 46.7666 315.611 46.2024V11.4435C315.611 6.11609 316.489 5.86597 318.246 5.86597C318.56 5.86597 318.623 5.67773 318.623 5.42709C318.623 5.05113 318.309 4.48693 318.246 4.42401C317.305 4.67465 315.924 4.98821 314.105 4.98821C312.286 4.98821 310.905 4.67517 309.964 4.42401C309.901 4.48693 309.587 5.05113 309.587 5.42709C309.587 5.67773 309.65 5.86597 309.964 5.86597C311.658 5.86597 312.536 6.11661 312.536 11.4435V35.2418C312.536 35.8055 312.16 35.9937 311.783 35.5549L285.499 4.66425C284.997 4.85197 284.119 4.97729 283.429 4.97729C282.802 4.97729 281.736 4.78957 280.607 4.41361C280.544 4.47653 280.167 5.04021 280.167 5.35325C280.167 5.60389 280.293 5.85453 280.669 5.85453C282.3 5.85453 282.802 7.29545 282.802 11.4315V40.3649C282.802 45.6808 281.925 45.9933 280.235 45.9933C279.922 45.9933 279.86 46.1181 279.86 46.3683C279.86 46.7432 280.048 47.2439 280.235 47.4941L280.234 47.4946ZM331.871 47.8737C340.082 47.8737 346.537 42.3648 346.537 35.5413C346.224 29.9695 342.965 26.965 337.136 24.3353L333.626 22.7707C327.046 19.8285 324.789 16.761 324.789 13.1923C324.789 8.55958 327.923 5.86805 333.375 5.86805C338.139 5.86805 341.523 8.43478 343.215 13.4429C343.278 13.8183 343.591 13.9437 343.779 13.9437C344.03 13.9437 344.531 13.7559 344.782 13.5682C344.28 12.379 343.904 10.8138 343.904 9.49921C343.904 8.68541 343.967 7.74681 344.155 7.05781C343.465 6.43173 339.079 4.05325 333.375 4.05325C325.791 4.05325 321.028 8.3729 321.028 14.8209C321.028 21.9574 325.854 25.9011 331.245 28.2806L335.193 30.033C339.016 31.7235 342.025 33.8513 342.025 38.1086C342.025 42.8037 337.888 45.9965 331.871 45.9965C326.419 45.9965 323.223 42.8037 321.655 37.9833C321.592 37.6078 321.279 37.4825 321.091 37.4825C320.841 37.4825 320.277 37.6702 320.026 37.8579C320.527 39.1101 320.904 40.6748 320.904 42.0523C320.904 42.9909 320.841 43.9929 320.528 44.8067C321.405 45.3699 325.792 47.8742 331.871 47.8742V47.8731V47.8737ZM237.463 47.5388C238.592 47.2257 240.474 46.9117 242.796 46.9117C245.243 46.9117 247 47.2247 248.13 47.5388C248.318 47.2881 248.506 46.8498 248.506 46.4733C248.506 46.2227 248.443 46.0344 248.13 46.0344C246.499 46.0344 245.557 45.7838 245.557 40.4569V27.9228C245.557 27.3711 245.804 26.4543 246.499 26.4543H265.573C266.804 26.4543 267.343 26.6707 267.343 27.9852V40.3945C267.33 45.7219 266.452 46.0349 264.758 46.0349C264.444 46.0349 264.381 46.1603 264.381 46.4109C264.381 46.7869 264.57 47.2881 264.758 47.5388C265.887 47.2257 267.644 46.9117 270.091 46.9117C272.538 46.9117 274.295 47.2247 275.487 47.5388C275.676 47.2881 275.864 46.7869 275.864 46.4109C275.864 46.1603 275.801 46.0349 275.487 46.0349C273.668 46.0349 272.789 45.7219 272.789 40.3945V11.4393C272.789 6.11193 273.667 5.86181 275.487 5.86181C275.801 5.86181 275.864 5.67357 275.864 5.42293C275.864 5.04697 275.55 4.48277 275.487 4.41985C274.295 4.67049 272.413 4.98405 270.091 4.98405C267.644 4.98405 265.887 4.67101 264.758 4.41985C264.695 4.48277 264.381 5.04697 264.381 5.42293C264.381 5.67357 264.444 5.86181 264.758 5.86181C266.452 5.86181 267.33 6.11245 267.343 11.4393V22.4072C267.343 23.9469 266.94 24.0847 265.573 24.0847H246.562C245.577 24.0847 245.557 23.7857 245.557 22.7831V11.4393C245.557 6.11193 246.499 5.86181 248.13 5.86181C248.443 5.86181 248.506 5.67357 248.506 5.42293C248.506 5.04697 248.193 4.48277 248.13 4.41985C247.001 4.67049 245.244 4.98405 242.796 4.98405C240.349 4.98405 238.592 4.67101 237.463 4.41985C237.4 4.48277 237.086 5.04697 237.086 5.42293C237.086 5.67357 237.149 5.86181 237.463 5.86181C239.22 5.86181 240.098 6.11245 240.11 11.4393V40.4569C240.098 45.7843 239.219 46.0344 237.463 46.0344C237.149 46.0344 237.086 46.2227 237.086 46.4733C237.086 46.8493 237.275 47.2881 237.463 47.5388ZM214.859 45.9959C205.333 45.9959 199.63 35.3536 199.63 24.7113C199.63 14.069 204.957 5.86805 214.108 5.86805C223.948 5.86805 229.212 17.3242 229.212 27.0898C229.212 36.8554 224.637 45.9954 214.86 45.9954L214.859 45.9959ZM214.421 47.8737C225.89 47.8737 235.103 37.9198 235.103 25.9629C235.103 14.0061 225.89 4.05273 214.421 4.05273C202.952 4.05273 193.739 13.9437 193.739 25.9635C193.739 37.9833 202.952 47.8742 214.421 47.8742V47.8737ZM175.271 47.948C184.139 47.948 188.855 43.3627 188.855 33.5003V11.3899C188.855 6.05109 189.735 5.79941 191.496 5.79941C191.748 5.79941 191.811 5.61065 191.811 5.36001C191.811 4.98301 191.559 4.41777 191.496 4.35485C190.364 4.60601 188.477 4.92009 186.151 4.92009C183.699 4.92009 181.938 4.60601 180.743 4.35485C180.68 4.48017 180.428 4.98301 180.428 5.36001C180.428 5.61117 180.491 5.79941 180.743 5.79941C182.503 5.79941 183.321 6.05057 183.321 11.3899V34.2543C183.321 42.4833 180.302 46.0635 174.894 46.0635C170.681 46.0635 167.347 43.5509 164.392 38.0233C164.266 37.7092 164.014 37.6463 163.7 37.6463C163.385 37.6463 163.071 37.7716 162.819 37.9604C163.511 39.4049 164.014 41.1636 164.391 42.7345C164.58 43.488 164.706 44.1791 164.706 44.8701C165.587 45.6236 169.108 47.948 175.271 47.948H175.271ZM119.721 30.9721C119.031 30.9721 118.781 30.4713 118.969 30.0335L125.863 10.6271C125.988 10.2517 126.239 10.0639 126.49 10.0639C126.741 10.0639 126.992 10.2517 127.117 10.6271L134.575 30.0335C134.763 30.5343 134.512 30.9721 133.885 30.9721H119.721ZM107.562 47.4831C108.44 47.1077 110.194 46.8571 111.322 46.8571C112.388 46.8571 113.954 47.1077 115.082 47.4831C115.333 47.0448 115.521 46.5445 115.521 46.2939C115.521 46.1691 115.396 45.9809 114.957 45.9809C112.764 45.9809 113.767 43.6024 114.644 41.2858L117.402 33.8987C117.59 33.4603 117.965 33.2097 118.467 33.2097H134.825C135.389 33.2097 135.64 33.4603 135.828 33.8987L138.711 41.4111C139.274 42.851 139.713 43.9778 139.713 44.7916C139.713 45.5425 139.15 45.9809 137.583 45.9809C137.207 45.9809 137.081 46.1686 137.081 46.2939C137.081 46.6069 137.457 47.3583 137.583 47.4831C138.773 47.1077 140.904 46.8571 142.722 46.8571C144.79 46.8571 147.171 47.1701 148.926 47.4831C148.989 47.3583 149.051 46.8571 149.051 46.6693C149.051 46.2939 148.863 45.9803 148.237 45.9803C146.921 45.9803 145.98 45.2913 144.476 41.2853L130.688 4.28673C129.748 4.84989 127.868 5.16345 126.677 5.16345C126.113 5.16345 125.674 5.10053 125.235 5.03865L111.698 41.1599C110.193 45.1665 109.567 45.9803 108.188 45.9803C107.561 45.9803 107.373 46.2934 107.436 46.6693L107.561 47.4831H107.562ZM78.3803 47.5715C79.3866 47.1945 81.5871 46.504 84.9835 46.504C87.3731 46.504 91.2093 46.8181 94.6682 47.1321C97.4981 47.3833 100.14 47.5715 101.46 47.5715C104.352 47.5715 106.554 42.9233 108.754 38.0867C108.566 37.8356 108.252 37.7097 107.937 37.7097C107.686 37.7097 107.371 37.7727 107.183 38.1491C103.535 44.8701 98.5045 45.1213 92.7815 45.1213C87.4366 45.1213 86.8702 44.1791 86.8702 40.473V11.3905C86.8702 5.98817 87.751 5.79993 89.3857 5.79993C89.7001 5.79993 89.7631 5.61117 89.7631 5.36053C89.7631 4.98353 89.5117 4.48069 89.3857 4.35537C88.3169 4.60653 86.5557 4.92061 84.1032 4.92061C81.6507 4.92061 79.827 4.60653 78.7582 4.35537C78.6327 4.48069 78.3808 4.98353 78.3808 5.36053C78.3808 5.61169 78.4438 5.79993 78.7582 5.79993C80.4564 5.79993 81.3362 5.98869 81.3362 11.3905V40.4735C81.3362 44.1796 80.3929 46.0641 78.3803 46.0641C78.0028 46.0641 77.8774 46.2528 77.8774 46.5035C77.8774 46.8175 78.1288 47.2569 78.3803 47.571V47.5715ZM24.8056 47.869C38.2724 47.869 40.8405 41.0492 40.8405 31.6018V11.4362C40.8405 6.29393 41.7406 5.88573 43.3644 5.87065C43.5929 5.86857 43.7783 5.68553 43.7835 5.45725C43.7923 5.07661 43.5986 4.62317 43.4706 4.43181C42.5314 4.68193 41.1544 4.99445 39.3381 4.99445C37.5217 4.99445 36.2072 4.68141 35.2686 4.43181C35.1436 4.55661 34.8932 5.05737 34.8932 5.43229C34.8932 5.68241 34.9562 5.87013 35.2686 5.87013C37.0214 5.87013 37.8981 6.18317 37.8981 11.4362V31.6003C37.8981 43.3023 32.4475 45.6174 25.9947 45.6174C16.6604 45.6174 13.2145 40.5484 13.2145 29.6601V11.4357C13.2145 6.12077 14.0907 5.87065 15.8435 5.87065C16.1569 5.87065 16.2189 5.68293 16.2189 5.43281C16.2189 5.05789 15.9685 4.55765 15.8435 4.43233C14.7164 4.68245 12.9011 4.99497 10.5225 4.99497C8.14391 4.99497 6.26611 4.68193 5.13902 4.43233C5.07655 4.49473 4.76367 5.05737 4.76367 5.43281C4.76367 5.68293 4.82666 5.87065 5.13902 5.87065C6.82888 5.87065 7.76804 6.12077 7.76804 11.4357V30.2883C7.76804 43.4895 11.5262 47.869 24.8056 47.869ZM393.018 47.4415C393.882 47.1951 395.238 46.8253 396.965 46.8253C398.692 46.8253 400.296 47.1951 401.159 47.4415C401.344 47.1951 401.529 46.7021 401.529 46.3324C401.529 46.0859 401.468 45.9627 401.159 45.9627C399.494 45.9627 398.445 45.6548 398.445 40.4184V14.7008C398.445 14.1376 398.821 14.0123 399.197 14.4501L426.513 46.6163C426.638 46.804 426.952 47.0547 427.453 47.0547C427.829 47.0547 428.267 46.7416 428.267 46.1785V11.3936C428.267 6.14261 429.133 5.89509 430.865 5.89509C431.174 5.89509 431.236 5.70997 431.236 5.46245C431.236 5.09169 430.926 4.53581 430.865 4.47393C429.937 4.72093 428.577 5.02981 426.783 5.02981C424.989 5.02981 423.628 4.72093 422.701 4.47393C422.639 4.53581 422.329 5.09169 422.329 5.46245C422.329 5.70945 422.391 5.89509 422.701 5.89509C424.371 5.89509 425.236 6.1421 425.236 11.3936V35.22C425.236 35.7831 424.86 35.9709 424.485 35.533L398.24 4.68765C397.738 4.87537 396.862 5.00069 396.173 5.00069C395.547 5.00069 394.482 4.81297 393.354 4.43753C393.291 4.50045 392.916 5.06309 392.916 5.37613C392.916 5.62625 393.041 5.87689 393.417 5.87689C395.045 5.87689 395.547 7.31574 395.547 11.4456V40.4195C395.547 45.6559 394.683 45.9637 393.018 45.9637C392.71 45.9637 392.648 46.0869 392.648 46.3334C392.648 46.7031 392.833 47.1961 393.018 47.4426V47.4415ZM370.008 45.9959C360.481 45.9959 354.778 35.3536 354.778 24.7113C354.778 14.069 360.105 5.86805 369.256 5.86805C379.096 5.86805 384.361 17.3242 384.361 27.0898C384.361 36.8554 379.786 45.9954 370.009 45.9954L370.008 45.9959ZM369.569 47.8737C381.039 47.8737 390.252 37.9198 390.252 25.9629C390.252 14.0061 381.038 4.05273 369.569 4.05273C358.101 4.05273 348.887 13.9437 348.887 25.9635C348.887 37.9833 358.1 47.8742 369.569 47.8742V47.8737Z" fill="white"/>
</svg>
