<svg width="437" height="52" viewBox="0 0 437 52" fill="none" xmlns="http://www.w3.org/2000/svg">
<g clip-path="url(#clip0_8911_2514)">
<path d="M219.546 28.4968C220.043 28.4727 220.517 28.4244 220.967 28.3761C230.967 27.3386 233.028 19.3998 233.028 15.1047C233.028 12.6193 232.436 10.0615 231.299 7.91396C230.09 5.64575 228.218 3.90839 225.92 2.87081C223.929 1.92974 220.92 1.51953 215.873 1.51953H204.072V51.9752H208.029V28.5209H215.091L230.848 51.9752H235.374L219.546 28.4727V28.4968ZM215.754 5.40445C219.901 5.40445 222.744 5.69401 224.237 6.39378C225.801 7.09354 227.033 8.22765 227.839 9.77197C228.668 11.3404 229.095 13.2708 229.095 15.1047C229.095 15.8045 229.047 16.4801 228.929 17.1316C228.55 19.3515 226.82 23.8638 220.896 24.4912C219.925 24.5877 218.811 24.6843 217.674 24.6843H208.029V5.40445H215.754Z" fill="white"/>
<path d="M382.856 41.8413L342.668 0V52H346.673V9.89327C348.213 11.5582 386.86 52 386.86 52V1.54432H382.856V41.8654V41.8413Z" fill="white"/>
<path d="M432.025 41.8413L391.837 0V52H395.841V9.89327C397.382 11.5582 436.029 52 436.029 52V1.54432H432.025V41.8654V41.8413Z" fill="white"/>
<path d="M3.2756 5.35745H31.6393L0.0292969 52.0006H37.6817V48.1639H7.32756L7.37495 48.1157C8.29908 46.7403 37.7765 3.25815 38.9613 1.54492H3.2756V5.38158V5.35745Z" fill="white"/>
<path d="M46.3542 1.54492H42.3496V52.0006H46.3542V1.54492Z" fill="white"/>
<path d="M169.619 1.54492V52.0006H198.883V48.1398H173.6V28.5222H197.272V24.6855H173.6V5.40571H198.883V1.54492H169.619Z" fill="white"/>
<path d="M297.315 52H301.461C301.461 52 307.717 36.2673 307.954 35.7123H328.593C328.806 36.2673 335.086 52 335.086 52H339.232L318.285 0L297.291 52H297.315ZM309.471 31.8033C309.944 30.645 317.527 11.51 318.285 9.60371C319.044 11.51 326.579 30.645 327.053 31.8033H309.471Z" fill="white"/>
<path d="M294.045 52L283.169 0L266.345 41.7207L249.497 0L238.621 52H242.555L250.658 12.5234L266.345 52L282.008 12.5234L290.112 52H294.045Z" fill="white"/>
<path d="M165.354 52L154.478 0L137.63 41.7207L120.806 0L109.93 52H113.863L121.967 12.5234L137.63 52L153.316 12.5234L161.42 52H165.354Z" fill="white"/>
<path d="M106.138 52L95.2854 0L78.4378 41.7207L61.5902 0L50.7139 52H54.671L62.7513 12.5234L78.4378 52L94.1243 12.5234L102.205 52H106.138Z" fill="white"/>
</g>
<defs>
<clipPath id="clip0_8911_2514">
<rect width="436" height="52" fill="white" transform="translate(0.0292969)"/>
</clipPath>
</defs>
</svg>
